<?xml version="1.0" encoding="UTF-8" standalone="no"?><!DOCTYPE svg PUBLIC "-//W3C//DTD SVG 1.1//EN" "http://www.w3.org/Graphics/SVG/1.1/DTD/svg11.dtd"><svg width="100%" height="100%" viewBox="0 0 500 500" version="1.1" xmlns="http://www.w3.org/2000/svg" xmlns:xlink="http://www.w3.org/1999/xlink" xml:space="preserve" xmlns:serif="http://www.serif.com/" style="fill-rule:evenodd;clip-rule:evenodd;stroke-linecap:round;stroke-linejoin:round;stroke-miterlimit:1.5;"><g id="Layer39"><path d="M60.341,439.974l-15.179,-18.08l333.571,-336.071l15.857,15.08l-334.249,339.071Z" style="fill:#3d2d20;stroke:#000;stroke-width:6.67px;"/><path d="M377.918,86.27c-0,0 -3.926,-26.917 4.989,-34.233c13.487,-11.068 75.934,-32.176 75.934,-32.176c0,0 -18.545,61.43 -29.159,74.949c-7.219,9.195 -34.523,6.166 -34.523,6.166l-17.241,-14.706Z" style="fill:#c2c2c2;stroke:#000;stroke-width:6.67px;"/><path d="M73.46,426.525l58.769,-59.191l12.136,27.976l-58.163,77.265l-12.742,-46.05Z" style="fill:#e1d6cd;stroke:#000;stroke-width:6.67px;"/><path d="M56.515,405.731l58.67,-56.842l-26.144,-12.656l-75.849,55.829l43.323,13.669Z" style="fill:#e1d6cd;stroke:#000;stroke-width:6.67px;"/></g><g id="Layer27"><path d="M-0.871,500.134l1.448,-0.561" style="fill:none;stroke:#000;stroke-width:0.23px;stroke-linecap:butt;"/><path d="M-0.915,-2.603l1.412,3.595" style="fill:none;stroke:#000;stroke-width:0.23px;stroke-linecap:butt;"/><path d="M500.878,-2.404l-1.342,3.151" style="fill:none;stroke:#000;stroke-width:0.23px;stroke-linecap:butt;"/><path d="M457.609,463.145l-0.267,-1.109" style="fill:none;stroke:#000;stroke-width:0.23px;stroke-linecap:butt;"/><path d="M457.609,463.145l-0.267,-1.109" style="fill:none;stroke:#000;stroke-width:0.23px;stroke-linecap:butt;"/></g></svg>