<?xml version="1.0" encoding="UTF-8" standalone="no"?><!DOCTYPE svg PUBLIC "-//W3C//DTD SVG 1.1//EN" "http://www.w3.org/Graphics/SVG/1.1/DTD/svg11.dtd"><svg width="100%" height="100%" viewBox="0 0 500 500" version="1.1" xmlns="http://www.w3.org/2000/svg" xmlns:xlink="http://www.w3.org/1999/xlink" xml:space="preserve" xmlns:serif="http://www.serif.com/" style="fill-rule:evenodd;clip-rule:evenodd;stroke-linecap:round;stroke-linejoin:round;stroke-miterlimit:1.5;"><g id="Layer37"><path d="M111.526,411.097l41.597,-104.053l-97.239,-2.922l86.434,-28.644l-100.48,-65.471l105.883,25.136l-76.171,-101.714l91.837,77.163l9.184,-88.854l32.413,81.839l35.114,-111.067l-1.621,117.497l43.758,-15.199l-27.011,38.582l103.721,-1.754l-102.101,42.673l44.298,20.46l-43.757,2.922l70.228,54.949l-88.055,-35.658l32.953,100.545l-63.206,-91.777l-10.264,61.964l-17.827,-61.964l-69.688,85.347Z" style="fill:#d60000;stroke:#000;stroke-width:6.67px;"/><path d="M144.792,354.717l24.378,-60.982l-56.989,-1.713l50.657,-16.787l-58.889,-38.371l62.055,14.732l-43.021,-64.289l52.203,49.9l5.382,-52.075l18.997,47.963l30.303,-63.924l-10.674,67.693l25.645,-8.908l-15.83,22.612l60.789,-1.028l-59.839,25.01l25.962,11.991l-25.645,1.712l41.158,32.205l-51.607,-20.899l24.175,56.589l-41.905,-51.45l-6.015,36.315l-10.448,-36.315l-40.842,50.019Z" style="fill:#fff;"/><path d="M357.537,338.899c-0.14,-5.461 -0.21,-9.557 -0.21,-12.288c-0,-16.079 2.101,-29.959 6.302,-41.639c3.081,-8.799 8.053,-17.673 14.916,-26.622c5.042,-6.523 14.075,-16.004 27.1,-28.443c13.165,-12.591 21.708,-22.602 25.63,-30.035c3.921,-7.433 5.882,-15.549 5.882,-24.347c-0,-15.928 -5.742,-29.884 -17.227,-41.867c-11.484,-12.136 -25.559,-18.203 -42.225,-18.203c-16.107,-0 -29.552,5.46 -40.336,16.382c-10.784,10.922 -17.856,27.988 -21.218,51.197l-38.864,-5.006c3.501,-31.097 13.865,-54.913 31.091,-71.448c17.367,-16.534 40.266,-24.801 68.696,-24.801c30.112,-0 54.131,8.874 72.057,26.622c17.927,17.748 26.891,39.212 26.891,64.394c-0,14.562 -3.152,27.987 -9.454,40.274c-6.302,12.287 -18.627,27.229 -36.974,44.825c-12.325,11.832 -20.378,20.555 -24.159,26.167c-3.781,5.613 -6.583,12.06 -8.403,19.341c-1.821,7.282 -2.871,19.114 -3.151,35.497l-36.344,-0Zm-2.311,82.141l0,-46.645l43.066,-0l0,46.645l-43.066,0Z" style="fill-rule:nonzero;stroke:#000;stroke-width:1px;stroke-linecap:butt;stroke-miterlimit:2;"/></g><g id="Layer27"><path d="M-0.871,500.134l1.448,-0.561" style="fill:none;stroke:#000;stroke-width:0.23px;stroke-linecap:butt;"/><path d="M-0.915,-2.603l1.412,3.595" style="fill:none;stroke:#000;stroke-width:0.23px;stroke-linecap:butt;"/><path d="M500.878,-2.404l-1.342,3.151" style="fill:none;stroke:#000;stroke-width:0.23px;stroke-linecap:butt;"/><path d="M457.609,463.145l-0.267,-1.109" style="fill:none;stroke:#000;stroke-width:0.23px;stroke-linecap:butt;"/><path d="M457.609,463.145l-0.267,-1.109" style="fill:none;stroke:#000;stroke-width:0.23px;stroke-linecap:butt;"/></g></svg>