<?xml version="1.0" encoding="UTF-8" standalone="no"?><!DOCTYPE svg PUBLIC "-//W3C//DTD SVG 1.1//EN" "http://www.w3.org/Graphics/SVG/1.1/DTD/svg11.dtd"><svg width="100%" height="100%" viewBox="0 0 500 500" version="1.1" xmlns="http://www.w3.org/2000/svg" xmlns:xlink="http://www.w3.org/1999/xlink" xml:space="preserve" xmlns:serif="http://www.serif.com/" style="fill-rule:evenodd;clip-rule:evenodd;stroke-linecap:round;stroke-linejoin:round;stroke-miterlimit:1.5;"><g id="Layer37"><path d="M122.017,437.112l55,-127.143l-128.572,-3.571l114.286,-35l-132.857,-80l140,30.714l-100.714,-124.286l121.428,94.286l12.143,-108.571l42.857,100l46.429,-135.715l-2.143,143.572l57.857,-18.572l-35.714,47.143l137.142,-2.143l-135,52.143l58.572,25l-57.857,3.572l92.857,67.142l-116.429,-43.571l43.572,122.857l-83.572,-112.143l-13.571,75.714l-23.571,-75.714l-92.143,104.286Z" style="fill:#d60000;stroke:#000;stroke-width:6.67px;"/><path d="M166.001,368.221l32.234,-74.515l-75.353,-2.093l66.98,-20.513l-77.864,-46.886l82.051,18.001l-56.884,-78.555l69.024,60.973l7.116,-63.631l25.118,58.608l40.068,-78.11l-14.113,82.714l33.908,-10.884l-20.931,27.629l80.376,-1.255l-79.12,30.559l34.327,14.652l-33.909,2.093l54.422,39.351l-68.236,-25.536l31.964,69.146l-55.407,-62.867l-7.954,44.374l-13.815,-44.374l-54.002,61.119Z" style="fill:#fff;"/></g><g id="Layer27"><path d="M-0.871,500.134l1.448,-0.561" style="fill:none;stroke:#000;stroke-width:0.23px;stroke-linecap:butt;"/><path d="M-0.915,-2.603l1.412,3.595" style="fill:none;stroke:#000;stroke-width:0.23px;stroke-linecap:butt;"/><path d="M500.878,-2.404l-1.342,3.151" style="fill:none;stroke:#000;stroke-width:0.23px;stroke-linecap:butt;"/><path d="M457.609,463.145l-0.267,-1.109" style="fill:none;stroke:#000;stroke-width:0.23px;stroke-linecap:butt;"/><path d="M457.609,463.145l-0.267,-1.109" style="fill:none;stroke:#000;stroke-width:0.23px;stroke-linecap:butt;"/></g></svg>