<?xml version="1.0" encoding="UTF-8" standalone="no"?><!DOCTYPE svg PUBLIC "-//W3C//DTD SVG 1.1//EN" "http://www.w3.org/Graphics/SVG/1.1/DTD/svg11.dtd"><svg width="100%" height="100%" viewBox="0 0 500 500" version="1.1" xmlns="http://www.w3.org/2000/svg" xmlns:xlink="http://www.w3.org/1999/xlink" xml:space="preserve" xmlns:serif="http://www.serif.com/" style="fill-rule:evenodd;clip-rule:evenodd;stroke-linecap:round;stroke-linejoin:round;stroke-miterlimit:1.5;"><g id="Layer38"><path d="M261.808,16.033c0,-0 -27.545,36.95 -44.421,48.352c-16.609,11.222 -39.002,16.541 -56.833,20.062c-16.398,3.237 -33.609,3.465 -50.152,1.06c-17.665,-2.567 -55.835,-16.463 -55.835,-16.463c0,0 -0.671,58 2.038,86.826c2.9,30.855 8.615,69.266 15.363,98.304c6.03,25.952 14.385,53.574 25.122,75.925c10.121,21.066 23.391,40.965 39.304,58.177c16.056,17.365 36.389,32.899 57.03,46.014c21.177,13.455 70.029,34.716 70.029,34.716c0,-0 30.545,-12.649 44.163,-21.773c16.785,-11.248 39.935,-28.112 56.548,-45.711c16.814,-17.813 32.69,-38.879 44.337,-61.164c13.481,-25.792 27.881,-62.55 36.547,-93.586c8.423,-30.166 12.999,-62.643 15.45,-92.634c2.371,-29.009 -0.744,-87.309 -0.744,-87.309c-0,-0 -36.29,12.168 -55.148,14.847c-19.652,2.792 -45.949,4.335 -62.764,1.905c-13.724,-1.984 -27.573,-7.583 -38.123,-16.488c-13.339,-11.258 -41.911,-51.06 -41.911,-51.06Z" style="fill:#c1c1c1;stroke:#000;stroke-width:6.67px;"/><path d="M261.165,52.759c0,-0 -20.357,29.183 -34.474,38.577c-14.117,9.393 -33.983,14.497 -50.227,17.782c-15.441,3.123 -31.9,3.196 -47.24,1.93c-15.223,-1.256 -44.802,-9.524 -44.802,-9.524c-0,0 0.978,45.748 3.446,68.467c2.757,25.376 7.262,59.354 13.094,83.784c5.144,21.55 12.985,43.909 21.895,62.799c8.464,17.945 18.105,35.881 31.565,50.54c14.248,15.517 35.632,30.936 53.923,42.563c17.448,11.092 55.819,27.198 55.819,27.198c-0,0 26.033,-10.78 37.639,-18.557c14.306,-9.586 34.036,-23.959 48.196,-38.959c14.33,-15.181 27.861,-33.137 37.788,-52.13c11.489,-21.982 23.762,-53.31 31.148,-79.762c7.179,-25.711 11.079,-53.391 13.168,-78.951c2.021,-24.725 -0.634,-74.413 -0.634,-74.413c0,-0 -30.929,10.371 -47.002,12.654c-16.749,2.38 -37.938,4.193 -53.493,1.623c-14.272,-2.358 -28.572,-8.067 -39.84,-17.044c-11.635,-9.271 -29.969,-38.577 -29.969,-38.577Z" style="fill:#a6bddd;"/><clipPath id="_clip1"><path d="M261.165,52.759c0,-0 -20.357,29.183 -34.474,38.577c-14.117,9.393 -33.983,14.497 -50.227,17.782c-15.441,3.123 -31.9,3.196 -47.24,1.93c-15.223,-1.256 -44.802,-9.524 -44.802,-9.524c-0,0 0.978,45.748 3.446,68.467c2.757,25.376 7.262,59.354 13.094,83.784c5.144,21.55 12.985,43.909 21.895,62.799c8.464,17.945 18.105,35.881 31.565,50.54c14.248,15.517 35.632,30.936 53.923,42.563c17.448,11.092 55.819,27.198 55.819,27.198c-0,0 26.033,-10.78 37.639,-18.557c14.306,-9.586 34.036,-23.959 48.196,-38.959c14.33,-15.181 27.861,-33.137 37.788,-52.13c11.489,-21.982 23.762,-53.31 31.148,-79.762c7.179,-25.711 11.079,-53.391 13.168,-78.951c2.021,-24.725 -0.634,-74.413 -0.634,-74.413c0,-0 -30.929,10.371 -47.002,12.654c-16.749,2.38 -37.938,4.193 -53.493,1.623c-14.272,-2.358 -28.572,-8.067 -39.84,-17.044c-11.635,-9.271 -29.969,-38.577 -29.969,-38.577Z"/></clipPath><g clip-path="url(#_clip1)"><path d="M263.194,48.245l0.97,388.63c-0,0 -41.637,-18.12 -59.686,-29.588c-17.592,-11.178 -34.922,-24.417 -48.606,-39.217c-13.563,-14.67 -24.872,-31.63 -33.498,-49.584c-9.152,-19.049 -16.273,-42.591 -21.412,-64.711c-5.751,-24.749 -10.853,-57.771 -13.094,-83.784c-2.069,-24.01 -0.353,-72.29 -0.353,-72.29c-0,-0 27.217,11.487 41.709,13.347c14.824,1.903 31.782,1.112 47.24,-1.93c16.695,-3.285 39.251,-6.872 53.706,-17.018c14.455,-10.145 33.024,-43.855 33.024,-43.855Z" style="fill:#6089c2;"/></g><path d="M261.165,52.759c0,-0 -20.357,29.183 -34.474,38.577c-14.117,9.393 -33.983,14.497 -50.227,17.782c-15.441,3.123 -31.9,3.196 -47.24,1.93c-15.223,-1.256 -44.802,-9.524 -44.802,-9.524c-0,0 0.978,45.748 3.446,68.467c2.757,25.376 7.262,59.354 13.094,83.784c5.144,21.55 12.985,43.909 21.895,62.799c8.464,17.945 18.105,35.881 31.565,50.54c14.248,15.517 35.632,30.936 53.923,42.563c17.448,11.092 55.819,27.198 55.819,27.198c-0,0 26.033,-10.78 37.639,-18.557c14.306,-9.586 34.036,-23.959 48.196,-38.959c14.33,-15.181 27.861,-33.137 37.788,-52.13c11.489,-21.982 23.762,-53.31 31.148,-79.762c7.179,-25.711 11.079,-53.391 13.168,-78.951c2.021,-24.725 -0.634,-74.413 -0.634,-74.413c0,-0 -30.929,10.371 -47.002,12.654c-16.749,2.38 -37.938,4.193 -53.493,1.623c-14.272,-2.358 -28.572,-8.067 -39.84,-17.044c-11.635,-9.271 -29.969,-38.577 -29.969,-38.577Z" style="fill:none;stroke:#000;stroke-width:6.67px;"/></g><g id="Layer27"><path d="M-0.871,500.134l1.448,-0.561" style="fill:none;stroke:#000;stroke-width:0.23px;stroke-linecap:butt;"/><path d="M-0.915,-2.603l1.412,3.595" style="fill:none;stroke:#000;stroke-width:0.23px;stroke-linecap:butt;"/><path d="M500.878,-2.404l-1.342,3.151" style="fill:none;stroke:#000;stroke-width:0.23px;stroke-linecap:butt;"/><path d="M457.609,463.145l-0.267,-1.109" style="fill:none;stroke:#000;stroke-width:0.23px;stroke-linecap:butt;"/><path d="M457.609,463.145l-0.267,-1.109" style="fill:none;stroke:#000;stroke-width:0.23px;stroke-linecap:butt;"/></g></svg>