<?xml version="1.0" encoding="UTF-8" standalone="no"?><!DOCTYPE svg PUBLIC "-//W3C//DTD SVG 1.1//EN" "http://www.w3.org/Graphics/SVG/1.1/DTD/svg11.dtd"><svg width="100%" height="100%" viewBox="0 0 160 120" version="1.1" xmlns="http://www.w3.org/2000/svg" xmlns:xlink="http://www.w3.org/1999/xlink" xml:space="preserve" xmlns:serif="http://www.serif.com/" style="fill-rule:evenodd;clip-rule:evenodd;stroke-linecap:round;stroke-linejoin:round;stroke-miterlimit:1.5;"><path d="M24.078,98.122c-0,0 -15.552,0.253 -19.266,-0.366c-1.483,-0.247 -3.079,-1.847 -3.021,-3.349c0.567,-14.526 -0.295,-69.765 0.252,-87.918c0.068,-2.274 2.815,-4.606 5.089,-4.546c27.484,0.729 123.45,-1.119 148.638,-0.131c2.182,0.086 2.487,5.049 2.492,6.059c0.066,11.246 -0.078,73.945 -0.365,89.015c-0.018,0.921 -2.418,2.315 -3.948,2.344c-18.869,0.367 -109.263,-0.144 -109.263,-0.144l-32.743,18.514l12.135,-19.478Z" style="fill:#fff;stroke:#000;stroke-width:4.16px;"/></svg>