<?xml version="1.0" encoding="UTF-8" standalone="no"?><!DOCTYPE svg PUBLIC "-//W3C//DTD SVG 1.1//EN" "http://www.w3.org/Graphics/SVG/1.1/DTD/svg11.dtd"><svg width="100%" height="100%" viewBox="0 0 500 500" version="1.1" xmlns="http://www.w3.org/2000/svg" xmlns:xlink="http://www.w3.org/1999/xlink" xml:space="preserve" xmlns:serif="http://www.serif.com/" style="fill-rule:evenodd;clip-rule:evenodd;stroke-linecap:square;stroke-linejoin:round;stroke-miterlimit:1.5;"><g id="Layer41"><path d="M50.195,253.87l27.315,-27.982l-27.912,-29.923l37.772,5.419l16.152,-38.146l15.479,38.576l43.1,-6.284l-32.77,31.003l28.638,27.209l-38.621,-7.977l-17.217,35.507l-15.366,-32.688l-36.57,5.286Z" style="fill:#f8ea19;stroke:#000;stroke-width:6.67px;"/><path d="M173.08,137.338l27.315,-27.982l-27.912,-29.923l37.771,5.419l16.153,-38.146l15.479,38.576l43.099,-6.284l-32.77,31.004l28.639,27.208l-38.621,-7.977l-17.218,35.507l-15.365,-32.688l-36.57,5.286Z" style="fill:#19f8e8;stroke:#000;stroke-width:6.67px;"/><path d="M220.558,312.136l27.315,-27.982l-27.912,-29.923l37.772,5.419l16.152,-38.146l15.479,38.576l43.1,-6.284l-32.77,31.003l28.638,27.209l-38.621,-7.977l-17.217,35.507l-15.366,-32.688l-36.57,5.286Z" style="fill:#2ef819;stroke:#000;stroke-width:6.67px;"/><path d="M330.41,204.062l27.315,-27.982l-27.912,-29.923l37.771,5.419l16.153,-38.146l15.479,38.576l43.099,-6.284l-32.77,31.003l28.639,27.209l-38.621,-7.977l-17.218,35.507l-15.365,-32.688l-36.57,5.286Z" style="fill:#192cf8;stroke:#000;stroke-width:6.67px;"/><path d="M86.502,392.017l27.315,-27.982l-27.912,-29.923l37.771,5.418l16.153,-38.145l15.479,38.575l43.099,-6.283l-32.769,31.003l28.638,27.209l-38.621,-7.977l-17.217,35.507l-15.366,-32.688l-36.57,5.286Z" style="fill:#f81919;stroke:#000;stroke-width:6.67px;"/><path d="M321.1,412.692l27.316,-27.982l-27.913,-29.923l37.772,5.418l16.152,-38.145l15.479,38.575l43.1,-6.283l-32.77,31.003l28.638,27.209l-38.621,-7.977l-17.217,35.507l-15.366,-32.688l-36.57,5.286Z" style="fill:#f819ea;stroke:#000;stroke-width:6.67px;"/></g><g id="Layer27"><path d="M-0.871,500.134l1.448,-0.561" style="fill:none;stroke:#000;stroke-width:0.23px;stroke-linecap:butt;"/><path d="M-0.915,-2.603l1.412,3.595" style="fill:none;stroke:#000;stroke-width:0.23px;stroke-linecap:butt;"/><path d="M500.878,-2.404l-1.342,3.151" style="fill:none;stroke:#000;stroke-width:0.23px;stroke-linecap:butt;"/><path d="M457.609,463.145l-0.267,-1.109" style="fill:none;stroke:#000;stroke-width:0.23px;stroke-linecap:butt;"/><path d="M457.609,463.145l-0.267,-1.109" style="fill:none;stroke:#000;stroke-width:0.23px;stroke-linecap:butt;"/></g></svg>