<?xml version="1.0" encoding="UTF-8" standalone="no"?><!DOCTYPE svg PUBLIC "-//W3C//DTD SVG 1.1//EN" "http://www.w3.org/Graphics/SVG/1.1/DTD/svg11.dtd"><svg width="100%" height="100%" viewBox="0 0 500 500" version="1.1" xmlns="http://www.w3.org/2000/svg" xmlns:xlink="http://www.w3.org/1999/xlink" xml:space="preserve" xmlns:serif="http://www.serif.com/" style="fill-rule:evenodd;clip-rule:evenodd;stroke-linejoin:round;stroke-miterlimit:2;"><g id="Layer33"><path d="M132.217,61.342l-48.554,20.929c-0,0 18.099,36.523 21.989,51.155c3.133,11.787 3.85,25.073 1.347,36.637c-2.502,11.564 -9.15,24.524 -16.363,32.748c-7.01,7.993 -26.912,16.592 -26.912,16.592c0,-0 -9.657,27.851 -11.588,38.979c-1.583,9.117 -1.178,18.604 -0,27.785c1.437,11.207 4.067,26.819 8.624,39.456c4.652,12.901 19.289,37.947 19.289,37.947l-15.401,10.916c0,0 14.886,14.57 24.063,18.855c11.833,5.524 30.929,11.032 46.933,14.289c19.045,3.877 44.808,9.315 67.337,8.971c22.53,-0.344 49.05,-6.47 67.838,-11.035c15.448,-3.753 34.227,-9.923 44.892,-16.354c8.287,-4.996 19.096,-22.228 19.096,-22.228l-25.025,-1.985c-0,0 12.005,-14.94 15.4,-23.816c4.492,-11.743 9.625,-31.59 11.55,-46.64c1.846,-14.43 1.284,-31.259 0,-43.663c-1.089,-10.531 -7.7,-30.763 -7.7,-30.763c0,0 -21.926,-14.296 -28.182,-23.062c-5.953,-8.341 -9.319,-19.176 -9.356,-29.532c-0.037,-10.381 4.786,-22.316 9.135,-32.754c5.684,-13.643 24.969,-49.102 24.969,-49.102l-57.427,-21.02c-0,0 -13.192,34.1 -24.726,43.732c-11.533,9.632 -30.442,14.225 -44.474,14.06c-14.032,-0.164 -29.17,-5.392 -39.718,-15.046c-11.125,-10.183 -27.036,-46.051 -27.036,-46.051Z" style="fill:#9c9c9c;"/><clipPath id="_clip1"><path d="M132.217,61.342l-48.554,20.929c-0,0 18.099,36.523 21.989,51.155c3.133,11.787 3.85,25.073 1.347,36.637c-2.502,11.564 -9.15,24.524 -16.363,32.748c-7.01,7.993 -26.912,16.592 -26.912,16.592c0,-0 -9.657,27.851 -11.588,38.979c-1.583,9.117 -1.178,18.604 -0,27.785c1.437,11.207 4.067,26.819 8.624,39.456c4.652,12.901 19.289,37.947 19.289,37.947l-15.401,10.916c0,0 14.886,14.57 24.063,18.855c11.833,5.524 30.929,11.032 46.933,14.289c19.045,3.877 44.808,9.315 67.337,8.971c22.53,-0.344 49.05,-6.47 67.838,-11.035c15.448,-3.753 34.227,-9.923 44.892,-16.354c8.287,-4.996 19.096,-22.228 19.096,-22.228l-25.025,-1.985c-0,0 12.005,-14.94 15.4,-23.816c4.492,-11.743 9.625,-31.59 11.55,-46.64c1.846,-14.43 1.284,-31.259 0,-43.663c-1.089,-10.531 -7.7,-30.763 -7.7,-30.763c0,0 -21.926,-14.296 -28.182,-23.062c-5.953,-8.341 -9.319,-19.176 -9.356,-29.532c-0.037,-10.381 4.786,-22.316 9.135,-32.754c5.684,-13.643 24.969,-49.102 24.969,-49.102l-57.427,-21.02c-0,0 -13.192,34.1 -24.726,43.732c-11.533,9.632 -30.442,14.225 -44.474,14.06c-14.032,-0.164 -29.17,-5.392 -39.718,-15.046c-11.125,-10.183 -27.036,-46.051 -27.036,-46.051Z"/></clipPath><g clip-path="url(#_clip1)"><path d="M309.782,364.999c-0,0 -23.515,12.683 -36.229,16.195c-17.435,4.816 -45.38,11.961 -68.377,12.702l-3.982,-271.47c13.753,-0.313 31.317,-4.915 42.251,-14.047c11.534,-9.632 24.726,-43.732 24.726,-43.732l57.427,21.02c0,-0 -19.285,35.459 -24.969,49.102c-4.349,10.438 -9.172,22.373 -9.135,32.754c0.037,10.356 3.403,21.191 9.356,29.532c6.256,8.766 28.182,23.062 28.182,23.062c0,0 6.611,20.232 7.7,30.763c1.284,12.404 1.846,29.233 0,43.663c-1.925,15.05 -7.058,34.897 -11.55,46.64c-3.395,8.876 -15.4,23.816 -15.4,23.816Z" style="fill:#fff;"/><path d="M201.194,122.426l6.36,22.437l1.424,92.85l1.929,64.524l-5.731,91.659c-22.998,0.741 -48.755,-3.202 -69.609,-8.256c-19.308,-4.679 -55.518,-22.07 -55.518,-22.07c-0,0 -14.637,-25.046 -19.289,-37.947c-4.557,-12.637 -7.187,-28.249 -8.624,-39.456c-1.178,-9.181 -1.583,-18.668 -0,-27.785c1.931,-11.128 11.588,-38.979 11.588,-38.979c0,-0 19.902,-8.599 26.912,-16.592c7.213,-8.224 13.861,-21.184 16.363,-32.748c2.503,-11.564 1.786,-24.85 -1.347,-36.637c-3.89,-14.632 -21.989,-51.155 -21.989,-51.155l48.554,-20.929c0,0 15.911,35.868 27.036,46.051c10.548,9.654 25.686,14.882 39.718,15.046c0.729,0.009 1.47,0.005 2.223,-0.013Z" style="fill:#fff;"/><path d="M80.049,363.57c-0,0 36.21,17.391 55.518,22.07c20.854,5.054 46.611,8.997 69.609,8.256c22.997,-0.741 50.942,-7.886 68.377,-12.702c12.714,-3.512 36.229,-16.195 36.229,-16.195l25.025,1.985c0,-0 -10.809,17.232 -19.096,22.228c-10.665,6.431 -29.444,12.601 -44.892,16.354c-18.788,4.565 -45.308,10.691 -67.838,11.035c-22.529,0.344 -48.292,-5.094 -67.337,-8.971c-16.004,-3.257 -35.1,-8.765 -46.933,-14.289c-9.177,-4.285 -24.063,-18.855 -24.063,-18.855l15.401,-10.916Z" style="fill:#fff;stroke:#000;stroke-width:1px;"/></g><path d="M132.217,61.342l-48.554,20.929c-0,0 18.099,36.523 21.989,51.155c3.133,11.787 3.85,25.073 1.347,36.637c-2.502,11.564 -9.15,24.524 -16.363,32.748c-7.01,7.993 -26.912,16.592 -26.912,16.592c0,-0 -9.657,27.851 -11.588,38.979c-1.583,9.117 -1.178,18.604 -0,27.785c1.437,11.207 4.067,26.819 8.624,39.456c4.652,12.901 19.289,37.947 19.289,37.947l-15.401,10.916c0,0 14.886,14.57 24.063,18.855c11.833,5.524 30.929,11.032 46.933,14.289c19.045,3.877 44.808,9.315 67.337,8.971c22.53,-0.344 49.05,-6.47 67.838,-11.035c15.448,-3.753 34.227,-9.923 44.892,-16.354c8.287,-4.996 19.096,-22.228 19.096,-22.228l-25.025,-1.985c-0,0 12.005,-14.94 15.4,-23.816c4.492,-11.743 9.625,-31.59 11.55,-46.64c1.846,-14.43 1.284,-31.259 0,-43.663c-1.089,-10.531 -7.7,-30.763 -7.7,-30.763c0,0 -21.926,-14.296 -28.182,-23.062c-5.953,-8.341 -9.319,-19.176 -9.356,-29.532c-0.037,-10.381 4.786,-22.316 9.135,-32.754c5.684,-13.643 24.969,-49.102 24.969,-49.102l-57.427,-21.02c-0,0 -13.192,34.1 -24.726,43.732c-11.533,9.632 -30.442,14.225 -44.474,14.06c-14.032,-0.164 -29.17,-5.392 -39.718,-15.046c-11.125,-10.183 -27.036,-46.051 -27.036,-46.051Z" style="fill:none;stroke:#000;stroke-width:6.67px;stroke-linecap:round;stroke-miterlimit:1.5;"/><path d="M80.049,363.57c-0,0 36.21,17.391 55.518,22.07c20.854,5.054 46.611,8.997 69.609,8.256c22.997,-0.741 50.942,-7.886 68.377,-12.702c12.714,-3.512 36.229,-16.195 36.229,-16.195" style="fill:none;stroke:#000;stroke-width:6.67px;stroke-linecap:round;stroke-miterlimit:1.5;"/><path d="M344.885,183.075l37.428,1.142l3.715,79l39.285,0.714l-2.429,-79.856l39,-0.572l-59.142,-76.285l-57.857,75.857Z" style="fill:#fff;stroke:#000;stroke-width:6.67px;stroke-linecap:square;stroke-miterlimit:1.5;"/></g><g id="Layer27"><path d="M-0.871,500.134l1.448,-0.561" style="fill:none;stroke:#000;stroke-width:0.23px;stroke-miterlimit:1.5;"/><path d="M-0.915,-2.603l1.412,3.595" style="fill:none;stroke:#000;stroke-width:0.23px;stroke-miterlimit:1.5;"/><path d="M500.878,-2.404l-1.342,3.151" style="fill:none;stroke:#000;stroke-width:0.23px;stroke-miterlimit:1.5;"/><path d="M457.609,463.145l-0.267,-1.109" style="fill:none;stroke:#000;stroke-width:0.23px;stroke-miterlimit:1.5;"/><path d="M457.609,463.145l-0.267,-1.109" style="fill:none;stroke:#000;stroke-width:0.23px;stroke-miterlimit:1.5;"/></g></svg>