<?xml version="1.0" encoding="UTF-8" standalone="no"?><!DOCTYPE svg PUBLIC "-//W3C//DTD SVG 1.1//EN" "http://www.w3.org/Graphics/SVG/1.1/DTD/svg11.dtd"><svg width="100%" height="100%" viewBox="0 0 500 500" version="1.1" xmlns="http://www.w3.org/2000/svg" xmlns:xlink="http://www.w3.org/1999/xlink" xml:space="preserve" xmlns:serif="http://www.serif.com/" style="fill-rule:evenodd;clip-rule:evenodd;stroke-linecap:square;stroke-linejoin:round;stroke-miterlimit:1.5;"><g id="Layer34"><path d="M367.536,178.099l50.369,-32.34l20,-2.678l-1.428,16.428l-54.286,39.286l-14.655,-20.696Z" style="fill:#5f78ff;stroke:#000;stroke-width:6.67px;"/><path d="M243.252,401.019l185.899,0.853c-0,-0 -2.615,-148.378 -12.791,-189.31c-5.963,-23.984 -48.266,-56.281 -48.266,-56.281c0,0 34.309,-16.998 42.637,-30.358c8.329,-13.359 12.678,-34.166 7.334,-49.8c-5.344,-15.633 -22.115,-36.526 -39.397,-44.001c-17.282,-7.476 -47.213,-7.107 -64.297,-0.853c-16.949,6.204 -31.892,24.189 -38.203,38.373c-6.31,14.184 -5.892,32.587 0.341,46.731c6.233,14.144 37.057,38.134 37.057,38.134c0,0 -42.792,34.172 -49.848,58.908c-11.719,41.085 -20.466,187.604 -20.466,187.604Z" style="fill:#ff0505;stroke:#000;stroke-width:6.67px;stroke-linecap:round;"/><path d="M250.39,258.137l60,-38.857l6.286,24l-59.429,39.429l-6.857,-24.572Z" style="fill:#5f78ff;stroke:#000;stroke-width:6.67px;"/><path d="M80.307,447.591l185.898,0.852c-0,0 -2.615,-148.377 -12.791,-189.309c-5.963,-23.984 -48.266,-56.281 -48.266,-56.281c0,-0 34.309,-16.998 42.638,-30.358c8.328,-13.359 12.677,-34.166 7.333,-49.8c-5.344,-15.634 -22.114,-36.526 -39.397,-44.002c-17.282,-7.475 -47.213,-7.106 -64.296,-0.852c-16.95,6.204 -31.893,24.189 -38.203,38.373c-6.311,14.184 -5.892,32.586 0.341,46.731c6.233,14.144 37.057,38.134 37.057,38.134c-0,0 -42.793,34.172 -49.849,58.908c-11.719,41.085 -20.465,187.604 -20.465,187.604Z" style="fill:#ff0505;stroke:#000;stroke-width:6.67px;stroke-linecap:round;"/><path d="M36.795,391.54l118.583,-81.961l4.155,27.987l-111.268,73.005l-25.211,4.435l13.741,-23.466Z" style="fill:#5f78ff;stroke:#000;stroke-width:6.67px;"/></g><g id="Layer27"><path d="M-0.871,500.134l1.448,-0.561" style="fill:none;stroke:#000;stroke-width:0.23px;stroke-linecap:butt;"/><path d="M-0.915,-2.603l1.412,3.595" style="fill:none;stroke:#000;stroke-width:0.23px;stroke-linecap:butt;"/><path d="M500.878,-2.404l-1.342,3.151" style="fill:none;stroke:#000;stroke-width:0.23px;stroke-linecap:butt;"/><path d="M457.609,463.145l-0.267,-1.109" style="fill:none;stroke:#000;stroke-width:0.23px;stroke-linecap:butt;"/><path d="M457.609,463.145l-0.267,-1.109" style="fill:none;stroke:#000;stroke-width:0.23px;stroke-linecap:butt;"/></g></svg>