<?xml version="1.0" encoding="UTF-8" standalone="no"?><!DOCTYPE svg PUBLIC "-//W3C//DTD SVG 1.1//EN" "http://www.w3.org/Graphics/SVG/1.1/DTD/svg11.dtd"><svg width="100%" height="100%" viewBox="0 0 500 500" version="1.1" xmlns="http://www.w3.org/2000/svg" xmlns:xlink="http://www.w3.org/1999/xlink" xml:space="preserve" xmlns:serif="http://www.serif.com/" style="fill-rule:evenodd;clip-rule:evenodd;stroke-linecap:round;stroke-linejoin:round;stroke-miterlimit:1.5;"><g id="Layer39"><path d="M87.72,56.147c0,-0 2.55,124.456 19.889,173.73c16.378,46.54 49.469,90.421 84.147,121.916c34.679,31.495 81.597,53.338 123.926,67.054c41.506,13.449 130.045,15.239 130.045,15.239l9.18,-158.49c-0,-0 -80.832,-9.398 -113.216,-25.907c-32.384,-16.51 -65.023,-40.639 -81.087,-73.15c-16.065,-32.511 -15.3,-121.916 -15.3,-121.916l-157.584,1.524Z" style="fill:#626262;stroke:#000;stroke-width:6.67px;"/><path d="M122.642,85.413c0,0 3.516,94.329 21.831,131.077c22.006,44.155 56.1,91.439 117.982,129.831c64.887,40.256 154.684,45.31 154.684,45.31" style="fill:none;stroke:#000;stroke-width:15.26px;stroke-linecap:square;"/><path d="M158.117,82.815c-0,-0 -2.541,66.407 17.306,112.02c17.634,40.529 50.609,86.436 108.482,121.446c67.694,40.949 138.234,41.064 138.234,41.064" style="fill:none;stroke:#000;stroke-width:15.26px;stroke-linecap:square;"/><path d="M203.65,81.715c-0,-0 4.235,77.188 20.852,110.392c16.617,33.204 45.982,66.757 78.85,88.831c51.783,34.778 124.708,34.119 124.708,34.119" style="fill:none;stroke:#000;stroke-width:15.26px;stroke-linecap:square;"/><path d="M179.981,54.831l-92.142,0.714l-7.857,-2.857l1.428,-25l28.572,0l15.714,11.429l35.714,2.143l3.554,6.464l15.729,2.995l-0.712,4.112Z" style="fill:#626262;stroke:#000;stroke-width:6.67px;stroke-linecap:square;"/></g><g id="Layer40"><path d="M238.948,130.469c85.004,-0 154.016,64.761 154.016,144.53c0,79.768 -69.012,144.53 -154.016,144.53c-85.004,-0 -154.017,-64.762 -154.017,-144.53c0,-79.769 69.013,-144.53 154.017,-144.53Zm2.336,36.64c-71.022,-1.401 -114.08,44.064 -114.08,110.724c-0,66.661 52.187,102.496 114.537,101.582c71.029,-1.042 106.767,-58.692 107.681,-112.096c1.141,-66.651 -61.787,-99.295 -108.138,-100.21Z" style="fill:#0696d0;"/><path d="M326.922,156.382c39.91,26.127 66.042,69.531 66.042,118.617c0,16.654 -3.008,32.654 -8.542,47.548l-38.664,-14.55c4.741,-12.583 4.578,-18.807 4.578,-32.906c0,-42.147 -14.369,-68.309 -49.279,-89.921l25.865,-28.788Z" style="fill:#f2fbff;"/><ellipse cx="238.948" cy="274.999" rx="154.017" ry="144.53" style="fill:none;stroke:#000;stroke-width:6.67px;stroke-linecap:square;"/><ellipse cx="238.455" cy="273.335" rx="111.337" ry="104.479" style="fill:none;stroke:#000;stroke-width:6.67px;stroke-linecap:square;"/><path d="M303.343,187.456l23.579,-31.074" style="fill:none;stroke:#000;stroke-width:6.67px;stroke-linecap:square;"/><path d="M343.93,309.826l40.492,12.721" style="fill:none;stroke:#000;stroke-width:6.67px;stroke-linecap:square;"/></g><g id="Layer27"><path d="M-0.871,500.134l1.448,-0.561" style="fill:none;stroke:#000;stroke-width:0.23px;stroke-linecap:butt;"/><path d="M-0.915,-2.603l1.412,3.595" style="fill:none;stroke:#000;stroke-width:0.23px;stroke-linecap:butt;"/><path d="M500.878,-2.404l-1.342,3.151" style="fill:none;stroke:#000;stroke-width:0.23px;stroke-linecap:butt;"/><path d="M457.609,463.145l-0.267,-1.109" style="fill:none;stroke:#000;stroke-width:0.23px;stroke-linecap:butt;"/><path d="M457.609,463.145l-0.267,-1.109" style="fill:none;stroke:#000;stroke-width:0.23px;stroke-linecap:butt;"/></g></svg>