<?xml version="1.0" encoding="UTF-8" standalone="no"?><!DOCTYPE svg PUBLIC "-//W3C//DTD SVG 1.1//EN" "http://www.w3.org/Graphics/SVG/1.1/DTD/svg11.dtd"><svg width="100%" height="100%" viewBox="0 0 500 500" version="1.1" xmlns="http://www.w3.org/2000/svg" xmlns:xlink="http://www.w3.org/1999/xlink" xml:space="preserve" xmlns:serif="http://www.serif.com/" style="fill-rule:evenodd;clip-rule:evenodd;stroke-linecap:round;stroke-linejoin:round;stroke-miterlimit:1.5;"><path d="M168.218,447.942l185.898,0.853c0,0 -2.615,-148.377 -12.791,-189.309c-5.963,-23.984 -48.265,-56.281 -48.265,-56.281c-0,-0 34.308,-16.998 42.637,-30.358c8.328,-13.36 12.677,-34.167 7.334,-49.8c-5.344,-15.634 -22.115,-36.526 -39.397,-44.002c-17.283,-7.476 -47.214,-7.106 -64.297,-0.853c-16.95,6.205 -31.893,24.19 -38.203,38.374c-6.31,14.184 -5.892,32.586 0.341,46.73c6.233,14.144 37.057,38.135 37.057,38.135c-0,-0 -42.793,34.171 -49.848,58.908c-11.719,41.085 -20.466,187.603 -20.466,187.603Z" style="fill:#ff0505;stroke:#000;stroke-width:6.67px;"/><path d="M220.429,86.114c-0,0 -64.598,5.615 -82.211,11.777c-10.834,3.791 -29.398,16.08 -23.468,25.198c5.929,9.118 37.556,24.78 59.044,29.512c27.556,6.068 70.8,7.891 106.291,6.897c36.748,-1.028 88.338,-4.834 114.201,-13.069c17.396,-5.54 42.992,-26.421 40.977,-36.343c-2.015,-9.922 -34.217,-19.033 -53.069,-23.189c-20.044,-4.419 -67.194,-3.326 -67.194,-3.326c-0,0 31.065,3.263 44.629,5.543c12.374,2.08 26.758,3.947 36.754,8.137c8.848,3.71 24.548,10.439 23.223,17.006c-1.326,6.568 -18.725,19.454 -31.177,22.4c-24.473,5.791 -79.254,11.794 -115.658,12.343c-34.384,0.518 -79.07,-4.404 -102.765,-9.051c-14.287,-2.803 -34.972,-13.105 -39.406,-18.835c-4.108,-5.307 6.546,-13.106 12.8,-15.543c14.971,-5.833 77.029,-19.457 77.029,-19.457Z" style="fill:#fff;"/><g id="Layer27"><path d="M-0.871,500.134l1.448,-0.561" style="fill:none;stroke:#000;stroke-width:0.23px;stroke-linecap:butt;"/><path d="M-0.915,-2.603l1.412,3.595" style="fill:none;stroke:#000;stroke-width:0.23px;stroke-linecap:butt;"/><path d="M500.878,-2.404l-1.342,3.151" style="fill:none;stroke:#000;stroke-width:0.23px;stroke-linecap:butt;"/><path d="M457.609,463.145l-0.267,-1.109" style="fill:none;stroke:#000;stroke-width:0.23px;stroke-linecap:butt;"/><path d="M457.609,463.145l-0.267,-1.109" style="fill:none;stroke:#000;stroke-width:0.23px;stroke-linecap:butt;"/></g><path d="M151.263,117.307l10.003,-21.669l-19.749,-9.892l23.918,-3.566l6.564,-22.363l7.827,21.778l24.777,3.876l-20.535,11.575l8.923,19.694l-20.187,-13.97l-21.541,14.537Z" style="fill:#120088;"/><path d="M346.263,110.164l10.003,-21.669l-19.749,-9.892l23.918,-3.566l6.564,-22.363l7.827,21.778l24.777,3.877l-20.535,11.574l8.923,19.694l-20.187,-13.97l-21.541,14.537Z" style="fill:#120088;"/><path d="M112.692,165.164l10.002,-21.669l-19.748,-9.892l23.917,-3.566l6.565,-22.363l7.826,21.778l24.777,3.877l-20.535,11.574l8.924,19.694l-20.188,-13.97l-21.54,14.537Z" style="fill:#5137ff;"/><path d="M244.12,179.45l10.003,-21.669l-19.749,-9.892l23.918,-3.566l6.564,-22.364l7.827,21.779l24.777,3.876l-20.535,11.575l8.923,19.694l-20.187,-13.97l-21.541,14.537Z" style="fill:#5137ff;"/><path d="M389.835,157.307l10.002,-21.669l-19.749,-9.892l23.918,-3.566l6.565,-22.363l7.826,21.778l24.777,3.876l-20.535,11.575l8.924,19.694l-20.188,-13.97l-21.54,14.537Z" style="fill:#5137ff;"/></svg>