<?xml version="1.0" encoding="UTF-8" standalone="no"?><!DOCTYPE svg PUBLIC "-//W3C//DTD SVG 1.1//EN" "http://www.w3.org/Graphics/SVG/1.1/DTD/svg11.dtd"><svg width="100%" height="100%" viewBox="0 0 80 80" version="1.1" xmlns="http://www.w3.org/2000/svg" xmlns:xlink="http://www.w3.org/1999/xlink" xml:space="preserve" xmlns:serif="http://www.serif.com/" style="fill-rule:evenodd;clip-rule:evenodd;stroke-linecap:square;stroke-linejoin:round;stroke-miterlimit:1.5;"><path d="M0.009,-0l0.033,0.033" style="fill:none;stroke:#000;stroke-width:0.05px;"/><path d="M0.001,80l0,-0.001" style="fill:none;stroke:#000;stroke-width:0.05px;"/><path d="M79.998,79.998l-0.004,-0.004" style="fill:none;stroke:#000;stroke-width:0.05px;"/><path d="M79.999,0.001l-0.004,0.004" style="fill:none;stroke:#000;stroke-width:0.05px;"/><g id="Layer1"><path d="M60.4,9.143l-48.114,30.171l48.114,32.915l-17.6,-32.572l17.6,-30.514Z" style="fill:#fff;"/><path d="M41.314,39.595l0.059,1.02l13.661,25.696l0.933,0.638l-14.653,-27.354Z" style="fill-opacity:0.7;"/><path d="M12.286,39.314l3.161,0.081l40.469,27.53l4.539,5.285l-48.169,-32.896Z" style="fill-opacity:0.77;"/><path d="M42.817,39.694l-1.498,-0.09l15.585,-26.678l3.485,-3.718l-17.572,30.486Z" style="fill-opacity:0.77;"/><path d="M15.455,39.405l1.472,1.012l38.353,-24.693l1.629,-2.812l-41.454,26.493Z" style="fill-opacity:0.73;"/><path d="M44.489,27.15l-20.46,12.773l20.46,13.935l-7.484,-13.789l7.484,-12.919Z" style="fill-opacity:0.31;"/></g></svg>