<?xml version="1.0" encoding="utf-8"?>
<svg viewBox="0 0 500 500" xmlns="http://www.w3.org/2000/svg">
  <path style="stroke: rgb(0, 0, 0); stroke-miterlimit: 1; paint-order: fill; fill: rgb(70, 64, 110); stroke-width: 16px; transform-origin: 244.081px 252.286px;" d="M 11.982 71.714 L 59.597 15.337 L 430.463 14.079 L 481.81 70.614 L 481.089 424.323 L 431.167 484.733 L 64.137 488.571 L 13.819 422.462 L 11.982 71.714 Z" transform="matrix(0.999922096729, 0.012484001927, -0.012484001927, 0.999922096729, -0.01972545236, -0.019525429471)"/>
  <ellipse style="stroke: rgb(0, 0, 0); fill: rgba(216, 216, 216, 0); stroke-width: 12px;" cx="243.578" cy="253.916" rx="193.296" ry="193.296" transform="matrix(0.9999999999999999, 0, 0, 0.9999999999999999, 0, -1.4210854715202004e-14)"/>
  <ellipse style="stroke: rgb(0, 0, 0); fill: rgba(216, 216, 216, 0); stroke-width: 11px;" cx="250.157" cy="340.382" rx="18.17" ry="18.483" transform="matrix(0.9999999999999999, 0, 0, 0.9999999999999999, 0, -1.4210854715202004e-14)"/>
  <path d="M 238.032 446.262 C 238.032 446.262 237.845 416.187 237.845 416.813 C 237.845 417.439 237.568 404.908 233.856 400.522 C 232.165 398.524 225.094 393.606 225.094 394.232 C 225.094 394.858 229.15 389.871 229.48 386.713 C 229.81 383.555 225.721 379.195 225.721 379.195 C 225.721 379.195 232.132 380.582 239.505 378.568 C 246.878 376.554 250.665 369.906 250.665 369.906 C 250.665 369.906 257.16 376.233 261.765 377.315 C 266.604 378.452 277.132 375.927 277.132 375.927 C 277.132 375.927 272.393 381.348 272.78 385.579 C 273.065 388.699 277.099 394.859 277.099 394.859 C 277.099 394.859 269.836 399.59 268.116 401.851 C 264.874 406.112 265.558 417.99 265.558 417.99 L 266.744 445.864 L 238.032 446.262 Z" style="stroke: rgb(0, 0, 0); fill: rgba(216, 216, 216, 0); stroke-width: 11px;" transform="matrix(0.9999999999999999, 0, 0, 0.9999999999999999, 0, -1.4210854715202004e-14)"/>
  <path style="stroke: rgb(0, 0, 0); fill: rgba(216, 216, 216, 0); stroke-width: 11px;" d="M 250.341 370.645 C 250.46 370.611 245.471 377.401 237.191 379.392 C 232.269 380.575 230.163 379.378 220.851 376.275 C 215.346 374.441 206.554 369.269 206.554 369.269 C 206.554 369.269 217.746 365.809 220.078 361.284 C 221.069 359.361 219.009 357.106 219.009 357.106 C 219.009 357.106 202.493 347.694 193.903 335.485 C 188.967 328.47 183.578 305.012 183.578 305.012 C 183.578 305.012 200.324 318.79 210.656 317.097 C 222.647 315.132 227.447 311.772 233.445 307.661 C 240.057 303.13 248.882 292.885 248.882 292.885 C 248.882 292.885 256.309 303.93 261.712 307.768 C 268.083 312.295 273.711 314.985 283.134 314.177 C 293.073 313.325 309.904 296.35 309.904 296.35 C 309.904 296.35 309.181 321.353 304.048 330.421 C 295.339 345.806 278.752 354.77 278.752 354.77 C 278.752 354.77 276.525 357.531 277.683 359.725 C 279.887 363.9 291.107 367.999 291.107 367.999 C 291.107 367.999 284.687 372.813 280.986 374.224 C 275.292 376.394 271.385 378.517 262.991 377.441 C 254.597 376.365 250.828 370.645 250.341 370.645 Z" transform="matrix(0.9999999999999999, 0, 0, 0.9999999999999999, 0, -1.4210854715202004e-14)"/>
  <path d="M 194.152 312.54 C 194.912 310.587 174.303 301.561 174.303 261.55 C 174.303 221.539 207.406 189.104 248.241 189.104 C 289.076 189.104 324.134 222.563 322.179 261.55 C 320.224 300.537 304.659 307.251 304.281 307.789" style="stroke: rgb(0, 0, 0); fill: rgba(216, 216, 216, 0); stroke-width: 11px; transform-origin: 248.934px 253.022px;" transform="matrix(0.999776005745, -0.021180003881, 0.011167001911, 0.999987900257, -3.56323782928, -3.282523757042)"/>
  <g transform="matrix(0.9999999999999999, 0, 0, 0.9999999999999999, 0, -1.4210854715202004e-14)">
    <path d="M 237.635 421.771 C 198.883 420.013 135.872 394.539 107.596 351.389 C 89.952 324.463 80.61 303.144 78.915 260.363 C 74.451 147.704 180.511 87.931 242.043 86.514 C 303.575 85.097 413.011 136.348 409.605 252.334 C 406.199 368.32 326.097 413.742 266.454 421.771 M 106.964 350.313 L 178.491 296.413" style="stroke: rgb(0, 0, 0); fill: rgba(216, 216, 216, 0); stroke-width: 11px;"/>
    <path style="fill: rgb(216, 216, 216); stroke: rgb(0, 0, 0); transform-box: fill-box; transform-origin: 182.844% 539.692%; stroke-width: 11px;" d="M 79.848 248.159 L 171.95 249.104" transform="matrix(0.999922, 0.012484, -0.012484, 0.999922, 0, 0)"/>
    <path style="fill: rgb(216, 216, 216); stroke: rgb(0, 0, 0); transform-box: fill-box; transform-origin: 180.691% 175.215%; stroke-width: 11px;" d="M 131.331 139.054 L 196.038 204.234" transform="matrix(0.999922, 0.012484, -0.012484, 0.999922, 0, 0)"/>
    <path style="fill: rgb(216, 216, 216); stroke: rgb(0, 0, 0); transform-box: fill-box; transform-origin: 0% 168.325%; stroke-width: 11px;" d="M 239.907 87.036 L 241.854 185.725" transform="matrix(0.999922, 0.012484, -0.012484, 0.999922, 0.000275, -0.016172)"/>
    <path style="fill: rgb(216, 216, 216); stroke: rgb(0, 0, 0); transform-box: fill-box; transform-origin: -61.3157% 180.976%; stroke-width: 11px;" d="M 289.085 198.566 L 355.682 131.024" transform="matrix(0.999922, 0.012484, -0.012484, 0.999922, 0, 0)"/>
    <path style="fill: rgb(216, 216, 216); stroke: rgb(0, 0, 0); transform-box: fill-box; transform-origin: -81.5274% 440.168%; stroke-width: 11px;" d="M 320.258 249.104 L 408.581 250.048" transform="matrix(0.999922, 0.012484, -0.012484, 0.999922, 0, 0)"/>
    <path style="fill: rgb(216, 216, 216); stroke: rgb(0, 0, 0); transform-box: fill-box; transform-origin: -85.1663% -87.2258%; stroke-width: 11px;" d="M 309.394 297.753 L 381.187 348.763" transform="matrix(0.999922, 0.012484, -0.012484, 0.999922, 0, 0)"/>
  </g>
</svg>