<?xml version="1.0" encoding="utf-8"?>
<svg viewBox="9.0306 11.1805 475.715 480.3204" xmlns="http://www.w3.org/2000/svg">
  <defs>
    <filter id="gaussian-blur-filter-0" color-interpolation-filters="sRGB" x="-50%" y="-50%" width="200%" height="200%">
      <feGaussianBlur stdDeviation="8.9 8.9" edgeMode="none"/>
    </filter>
    <filter id="gaussian-blur-filter-1" color-interpolation-filters="sRGB" x="-50%" y="-50%" width="200%" height="200%">
      <feGaussianBlur stdDeviation="2.1 2.1" edgeMode="none"/>
    </filter>
  </defs>
  <path style="stroke: rgb(0, 0, 0); stroke-miterlimit: 1; paint-order: fill; fill: rgb(70, 64, 110); stroke-width: 16px; transform-origin: 244.081px 252.286px;" d="M 11.982 71.714 L 59.597 15.337 L 430.463 14.079 L 481.81 70.614 L 481.089 424.323 L 431.167 484.733 L 64.137 488.571 L 13.819 422.462 L 11.982 71.714 Z" transform="matrix(0.999922096729, 0.012484001927, -0.012484001927, 0.999922096729, -0.01972545236, -0.019525429471)"/>
  <path d="M 436.874 253.916 C 436.874 360.67 350.332 447.212 243.578 447.212 C 136.824 447.212 50.282 360.67 50.282 253.916 C 50.282 147.162 136.824 60.62 243.578 60.62 C 350.332 60.62 436.874 147.162 436.874 253.916 Z M 268.327 340.382 C 268.327 350.59 260.192 358.865 250.157 358.865 C 240.122 358.865 231.987 350.59 231.987 340.382 C 231.987 330.174 240.122 321.899 250.157 321.899 C 260.192 321.899 268.327 330.174 268.327 340.382 Z M 238.032 446.262 C 238.032 446.262 237.845 416.187 237.845 416.813 C 237.845 417.439 237.568 404.908 233.856 400.522 C 232.165 398.524 225.094 393.606 225.094 394.232 C 225.094 394.858 229.15 389.871 229.48 386.713 C 229.81 383.555 225.721 379.195 225.721 379.195 C 225.721 379.195 232.132 380.582 239.505 378.568 C 246.878 376.554 250.665 369.906 250.665 369.906 C 250.665 369.906 257.16 376.233 261.765 377.315 C 266.604 378.452 277.132 375.927 277.132 375.927 C 277.132 375.927 272.393 381.348 272.78 385.579 C 273.065 388.699 277.099 394.859 277.099 394.859 C 277.099 394.859 269.836 399.59 268.116 401.851 C 264.874 406.112 265.558 417.99 265.558 417.99 L 266.744 445.864 L 238.032 446.262 Z M 250.341 370.645 C 250.46 370.611 245.471 377.401 237.191 379.392 C 232.269 380.575 230.163 379.378 220.851 376.275 C 215.346 374.441 206.554 369.269 206.554 369.269 C 206.554 369.269 217.746 365.809 220.078 361.284 C 221.069 359.361 219.009 357.106 219.009 357.106 C 219.009 357.106 202.493 347.694 193.903 335.485 C 188.967 328.47 183.578 305.012 183.578 305.012 C 183.578 305.012 200.324 318.79 210.656 317.097 C 222.647 315.132 227.447 311.772 233.445 307.661 C 240.057 303.13 248.882 292.885 248.882 292.885 C 248.882 292.885 256.309 303.93 261.712 307.768 C 268.083 312.295 273.711 314.985 283.134 314.177 C 293.073 313.325 309.904 296.35 309.904 296.35 C 309.904 296.35 309.181 321.353 304.048 330.421 C 295.339 345.806 278.752 354.77 278.752 354.77 C 278.752 354.77 276.525 357.531 277.683 359.725 C 279.887 363.9 291.107 367.999 291.107 367.999 C 291.107 367.999 284.687 372.813 280.986 374.224 C 275.292 376.394 271.385 378.517 262.991 377.441 C 254.597 376.365 250.828 370.645 250.341 370.645 Z M 191.266 310.417 C 192.004 308.448 171.299 299.859 170.852 259.848 C 170.405 219.838 203.138 186.702 243.964 185.837 C 284.79 184.972 320.214 217.688 318.695 256.716 C 317.175 295.744 301.689 302.788 301.317 303.334 M 237.635 421.771 C 198.883 420.013 135.872 394.539 107.596 351.389 C 89.952 324.463 80.61 303.144 78.915 260.363 C 74.451 147.704 180.511 87.931 242.043 86.514 C 303.575 85.097 413.011 136.348 409.605 252.334 C 406.199 368.32 326.097 413.742 266.454 421.771 M 106.964 350.313 L 178.491 296.413 M 79.925 246.057 L 172.008 248.152 M 132.766 137.603 L 196.654 203.586 M 241.981 87.033 L 242.696 185.738 M 289.765 199.08 L 357.2 132.375 M 320.304 250.003 L 408.609 252.05 M 308.834 298.513 L 379.984 350.415" style="stroke: rgb(0, 0, 0); fill: rgba(216, 216, 216, 0); stroke-width: 12px;" transform="matrix(1, 0, 0, 1, 0, 1.4210854715202004e-14)"/>
  <path d="M 437.526 254.758 C 437.526 361.512 350.984 448.054 244.23 448.054 C 137.476 448.054 50.934 361.512 50.934 254.758 C 50.934 148.004 137.476 61.462 244.23 61.462 C 350.984 61.462 437.526 148.004 437.526 254.758 Z M 268.979 341.224 C 268.979 351.432 260.844 359.707 250.809 359.707 C 240.774 359.707 232.639 351.432 232.639 341.224 C 232.639 331.016 240.774 322.741 250.809 322.741 C 260.844 322.741 268.979 331.016 268.979 341.224 Z M 238.684 447.104 C 238.684 447.104 238.497 417.029 238.497 417.655 C 238.497 418.281 238.22 405.75 234.508 401.364 C 232.817 399.366 225.746 394.448 225.746 395.074 C 225.746 395.7 229.802 390.713 230.132 387.555 C 230.462 384.397 226.373 380.037 226.373 380.037 C 226.373 380.037 232.784 381.424 240.157 379.41 C 247.53 377.396 251.317 370.748 251.317 370.748 C 251.317 370.748 257.812 377.075 262.417 378.157 C 267.256 379.294 277.784 376.769 277.784 376.769 C 277.784 376.769 273.045 382.19 273.432 386.421 C 273.717 389.541 277.751 395.701 277.751 395.701 C 277.751 395.701 270.488 400.432 268.768 402.693 C 265.526 406.954 266.21 418.832 266.21 418.832 L 267.396 446.706 L 238.684 447.104 Z M 250.993 371.487 C 251.112 371.453 246.123 378.243 237.843 380.234 C 232.921 381.417 230.815 380.22 221.503 377.117 C 215.998 375.283 207.206 370.111 207.206 370.111 C 207.206 370.111 218.398 366.651 220.73 362.126 C 221.721 360.203 219.661 357.948 219.661 357.948 C 219.661 357.948 203.145 348.536 194.555 336.327 C 189.619 329.312 184.23 305.854 184.23 305.854 C 184.23 305.854 200.976 319.632 211.308 317.939 C 223.299 315.974 228.099 312.614 234.097 308.503 C 240.709 303.972 249.534 293.727 249.534 293.727 C 249.534 293.727 256.961 304.772 262.364 308.61 C 268.735 313.137 274.363 315.827 283.786 315.019 C 293.725 314.167 310.556 297.192 310.556 297.192 C 310.556 297.192 309.833 322.195 304.7 331.263 C 295.991 346.648 279.404 355.612 279.404 355.612 C 279.404 355.612 277.177 358.373 278.335 360.567 C 280.539 364.742 291.759 368.841 291.759 368.841 C 291.759 368.841 285.339 373.655 281.638 375.066 C 275.944 377.236 272.037 379.359 263.643 378.283 C 255.249 377.207 251.48 371.487 250.993 371.487 Z M 191.918 311.259 C 192.656 309.29 171.951 300.701 171.504 260.69 C 171.057 220.68 203.79 187.544 244.616 186.679 C 285.442 185.814 320.866 218.53 319.347 257.558 C 317.827 296.586 302.341 303.63 301.969 304.176 M 238.287 422.613 C 199.535 420.855 136.524 395.381 108.248 352.231 C 90.604 325.305 81.262 303.986 79.567 261.205 C 75.103 148.546 181.163 88.773 242.695 87.356 C 304.227 85.939 413.663 137.19 410.257 253.176 C 406.851 369.162 326.749 414.584 267.106 422.613 M 107.616 351.155 L 179.143 297.255 M 80.577 246.899 L 172.66 248.994 M 133.418 138.445 L 197.306 204.428 M 242.633 87.875 L 243.348 186.58 M 290.417 199.922 L 357.852 133.217 M 320.956 250.845 L 409.261 252.892 M 309.486 299.355 L 380.636 351.257" style="fill: rgba(216, 216, 216, 0); stroke-width: 12px; stroke: rgb(255, 181, 251); filter: url('#gaussian-blur-filter-0');" transform="matrix(1, 0, 0, 1, 0, 1.4210854715202004e-14)"/>
  <path d="M 437.526 253.382 C 437.526 360.136 350.984 446.678 244.23 446.678 C 137.476 446.678 50.934 360.136 50.934 253.382 C 50.934 146.628 137.476 60.086 244.23 60.086 C 350.984 60.086 437.526 146.628 437.526 253.382 Z M 268.979 339.848 C 268.979 350.056 260.844 358.331 250.809 358.331 C 240.774 358.331 232.639 350.056 232.639 339.848 C 232.639 329.64 240.774 321.365 250.809 321.365 C 260.844 321.365 268.979 329.64 268.979 339.848 Z M 238.684 445.728 C 238.684 445.728 238.497 415.653 238.497 416.279 C 238.497 416.905 238.22 404.374 234.508 399.988 C 232.817 397.99 225.746 393.072 225.746 393.698 C 225.746 394.324 229.802 389.337 230.132 386.179 C 230.462 383.021 226.373 378.661 226.373 378.661 C 226.373 378.661 232.784 380.048 240.157 378.034 C 247.53 376.02 251.317 369.372 251.317 369.372 C 251.317 369.372 257.812 375.699 262.417 376.781 C 267.256 377.918 277.784 375.393 277.784 375.393 C 277.784 375.393 273.045 380.814 273.432 385.045 C 273.717 388.165 277.751 394.325 277.751 394.325 C 277.751 394.325 270.488 399.056 268.768 401.317 C 265.526 405.578 266.21 417.456 266.21 417.456 L 267.396 445.33 L 238.684 445.728 Z M 250.993 370.111 C 251.112 370.077 246.123 376.867 237.843 378.858 C 232.921 380.041 230.815 378.844 221.503 375.741 C 215.998 373.907 207.206 368.735 207.206 368.735 C 207.206 368.735 218.398 365.275 220.73 360.75 C 221.721 358.827 219.661 356.572 219.661 356.572 C 219.661 356.572 203.145 347.16 194.555 334.951 C 189.619 327.936 184.23 304.478 184.23 304.478 C 184.23 304.478 200.976 318.256 211.308 316.563 C 223.299 314.598 228.099 311.238 234.097 307.127 C 240.709 302.596 249.534 292.351 249.534 292.351 C 249.534 292.351 256.961 303.396 262.364 307.234 C 268.735 311.761 274.363 314.451 283.786 313.643 C 293.725 312.791 310.556 295.816 310.556 295.816 C 310.556 295.816 309.833 320.819 304.7 329.887 C 295.991 345.272 279.404 354.236 279.404 354.236 C 279.404 354.236 277.177 356.997 278.335 359.191 C 280.539 363.366 291.759 367.465 291.759 367.465 C 291.759 367.465 285.339 372.279 281.638 373.69 C 275.944 375.86 272.037 377.983 263.643 376.907 C 255.249 375.831 251.48 370.111 250.993 370.111 Z M 191.918 309.883 C 192.656 307.914 171.951 299.325 171.504 259.314 C 171.057 219.304 203.79 186.168 244.616 185.303 C 285.442 184.438 320.866 217.154 319.347 256.182 C 317.827 295.21 302.341 302.254 301.969 302.8 M 238.287 421.237 C 199.535 419.479 136.524 394.005 108.248 350.855 C 90.604 323.929 81.262 302.61 79.567 259.829 C 75.103 147.17 181.163 87.397 242.695 85.98 C 304.227 84.563 413.663 135.814 410.257 251.8 C 406.851 367.786 326.749 413.208 267.106 421.237 M 107.616 349.779 L 179.143 295.879 M 80.577 245.523 L 172.66 247.618 M 133.418 137.069 L 197.306 203.052 M 242.633 86.499 L 243.348 185.204 M 290.417 198.546 L 357.852 131.841 M 320.956 249.469 L 409.261 251.516 M 309.486 297.979 L 380.636 349.881" style="fill: rgba(216, 216, 216, 0); stroke: rgb(255, 204, 251); stroke-width: 8px; filter: url('#gaussian-blur-filter-1');" transform="matrix(1, 0, 0, 1, 0, 1.4210854715202004e-14)"/>
</svg>