<?xml version="1.0" encoding="UTF-8" standalone="no"?><!DOCTYPE svg PUBLIC "-//W3C//DTD SVG 1.1//EN" "http://www.w3.org/Graphics/SVG/1.1/DTD/svg11.dtd"><svg width="100%" height="100%" viewBox="0 0 246 246" version="1.1" xmlns="http://www.w3.org/2000/svg" xmlns:xlink="http://www.w3.org/1999/xlink" xml:space="preserve" xmlns:serif="http://www.serif.com/" style="fill-rule:evenodd;clip-rule:evenodd;stroke-linecap:round;stroke-linejoin:round;stroke-miterlimit:1.5;"><path d="M8.171,39.219l23.881,-31.293l171.697,-0.823l30.469,31.292l0,170.874l-26.763,27.587l-175.403,-0.412l-21.823,-27.175l-2.058,-170.05Z" style="fill:#433e66;stroke:#000;stroke-width:7px;"/><ellipse cx="123.056" cy="166.415" rx="9.128" ry="8.251" style="fill:none;stroke:#000;stroke-width:2px;stroke-linejoin:bevel;stroke-miterlimit:1;"/><path d="M53.892,171.505l36.161,-27.033" style="fill:none;stroke:#000;stroke-width:3px;stroke-linejoin:bevel;stroke-miterlimit:1;"/><path d="M116.666,208.069c-44.741,-2.42 -80.329,-39.664 -80.329,-85.189c0,-47.086 38.071,-85.314 84.963,-85.314c46.892,0 84.963,38.228 84.963,85.314c-0,43.893 -33.083,80.089 -75.555,84.796" style="fill:none;stroke:#000;stroke-width:5px;stroke-linecap:butt;stroke-linejoin:bevel;stroke-miterlimit:1;"/><ellipse cx="121.651" cy="123.407" rx="94.793" ry="94.267" style="fill:none;stroke:#000;stroke-width:5px;stroke-linejoin:bevel;stroke-miterlimit:1;"/><path d="M116.592,216.717c0,0 0.139,-4.046 0.074,-8.648c-0.06,-4.27 -0.297,-9.019 -0.983,-11.461c-1.16,-4.125 -7.649,-10.331 -7.649,-10.331c-0,-0 7.035,-0.104 9.422,-1.6c2.387,-1.496 5.437,-7.019 5.437,-7.019c-0,-0 3.322,5.032 6.004,6.353c2.682,1.321 9.548,1.212 9.548,1.212c0,0 -6.298,6.579 -7.28,10.811c-0.58,2.501 -0.596,7.314 -0.457,11.642c0.152,4.684 0.486,8.8 0.486,8.8" style="fill:none;stroke:#000;stroke-width:3px;stroke-miterlimit:1;"/><path d="M109.483,184.764c0,0 -1.939,-2.247 -3.188,-2.994c-1.248,-0.747 -4.305,-1.487 -4.305,-1.487c0,-0 2.575,-0.728 3.745,-1.313c1.171,-0.586 3.277,-2.198 3.277,-2.198c0,-0 -6.175,-4.145 -8.555,-6.148c-2.09,-1.76 -4.241,-4.023 -5.721,-5.873c-1.131,-1.412 -2.425,-3.924 -3.486,-7.54c-1.394,-4.752 -2.232,-9.213 -2.232,-9.213c0,-0 6.23,4.897 8.884,5.8c2.225,0.758 4.818,0.384 7.041,-0.38c2.448,-0.841 5.335,-2.777 7.647,-4.668c2.862,-2.339 9.521,-9.37 9.521,-9.37c0,0 7.015,6.658 10.089,8.696c2.518,1.671 5.99,3.085 8.35,3.534c1.923,0.365 5.81,-0.843 5.81,-0.843c0,0 3.258,-1.427 4.647,-2.509c1.568,-1.22 4.761,-4.816 4.761,-4.816c-0,0 -3.366,14.022 -5.362,18.545c-1.461,3.307 -4.398,6.278 -6.62,8.592c-1.972,2.054 -6.707,5.291 -6.707,5.291c0,-0 1.965,1.618 3.088,2.196c1.222,0.63 4.244,1.582 4.244,1.582c0,-0 -4.019,1.884 -5.416,2.799c-1.116,0.732 -2.963,2.693 -2.963,2.693" style="fill:none;stroke:#000;stroke-width:3px;stroke-miterlimit:1;"/><path d="M99.728,153.633c-8.775,-6.43 -14.239,-14.911 -14.239,-26.54c0,-19.474 15.968,-35.284 35.636,-35.284c19.667,-0 35.635,15.81 35.635,35.284c-0,6.936 -2.026,14.787 -5.522,20.245" style="fill:none;stroke:#000;stroke-width:4px;stroke-linejoin:bevel;stroke-miterlimit:1;"/><path d="M37.391,120.247l47.747,1.404" style="fill:none;stroke:#000;stroke-width:3px;stroke-linejoin:bevel;stroke-miterlimit:1;"/><path d="M61.967,63.02l35.81,36.162" style="fill:none;stroke:#000;stroke-width:3px;stroke-linejoin:bevel;stroke-miterlimit:1;"/><path d="M118.491,36.688l-0.702,53.014" style="fill:none;stroke:#000;stroke-width:3px;stroke-linejoin:bevel;stroke-miterlimit:1;"/><path d="M179.229,59.158l-37.215,37.215" style="fill:none;stroke:#000;stroke-width:3px;stroke-linejoin:bevel;stroke-miterlimit:1;"/><path d="M206.965,120.247l-49.854,0.702" style="fill:none;stroke:#000;stroke-width:3px;stroke-linejoin:bevel;stroke-miterlimit:1;"/><path d="M187.655,176.772l-35.459,-29.14" style="fill:none;stroke:#000;stroke-width:3px;stroke-linejoin:bevel;stroke-miterlimit:1;"/></svg>