<?xml version="1.0" encoding="utf-8"?>
<svg viewBox="0 0 500 500" xmlns="http://www.w3.org/2000/svg">
  <path style="stroke: rgb(0, 0, 0); stroke-miterlimit: 1; paint-order: fill; fill: rgb(70, 64, 110); stroke-width: 16px; transform-origin: 244.081px 252.286px;" d="M 11.982 71.714 L 59.597 15.337 L 430.463 14.079 L 481.81 70.614 L 481.089 424.323 L 431.167 484.733 L 64.137 488.571 L 13.819 422.462 L 11.982 71.714 Z" transform="matrix(0.999922096729, 0.012484001927, -0.012484001927, 0.999922096729, -0.01972545236, -0.019525429471)"/>
  <g transform="matrix(0.9999999999999999, 0, 0, 0.9999999999999999, 0, -1.4210854715202004e-14)">
    <path d="M 436.874 253.916 C 436.874 360.67 350.332 447.212 243.578 447.212 C 136.824 447.212 50.282 360.67 50.282 253.916 C 50.282 147.162 136.824 60.62 243.578 60.62 C 350.332 60.62 436.874 147.162 436.874 253.916 Z M 268.327 340.382 C 268.327 350.59 260.192 358.865 250.157 358.865 C 240.122 358.865 231.987 350.59 231.987 340.382 C 231.987 330.174 240.122 321.899 250.157 321.899 C 260.192 321.899 268.327 330.174 268.327 340.382 Z M 238.032 446.262 C 238.032 446.262 237.845 416.187 237.845 416.813 C 237.845 417.439 237.568 404.908 233.856 400.522 C 232.165 398.524 225.094 393.606 225.094 394.232 C 225.094 394.858 229.15 389.871 229.48 386.713 C 229.81 383.555 225.721 379.195 225.721 379.195 C 225.721 379.195 232.132 380.582 239.505 378.568 C 246.878 376.554 250.665 369.906 250.665 369.906 C 250.665 369.906 257.16 376.233 261.765 377.315 C 266.604 378.452 277.132 375.927 277.132 375.927 C 277.132 375.927 272.393 381.348 272.78 385.579 C 273.065 388.699 277.099 394.859 277.099 394.859 C 277.099 394.859 269.836 399.59 268.116 401.851 C 264.874 406.112 265.558 417.99 265.558 417.99 L 266.744 445.864 L 238.032 446.262 Z M 250.341 370.645 C 250.46 370.611 245.471 377.401 237.191 379.392 C 232.269 380.575 230.163 379.378 220.851 376.275 C 215.346 374.441 206.554 369.269 206.554 369.269 C 206.554 369.269 217.746 365.809 220.078 361.284 C 221.069 359.361 219.009 357.106 219.009 357.106 C 219.009 357.106 202.493 347.694 193.903 335.485 C 188.967 328.47 183.578 305.012 183.578 305.012 C 183.578 305.012 200.324 318.79 210.656 317.097 C 222.647 315.132 227.447 311.772 233.445 307.661 C 240.057 303.13 248.882 292.885 248.882 292.885 C 248.882 292.885 256.309 303.93 261.712 307.768 C 268.083 312.295 273.711 314.985 283.134 314.177 C 293.073 313.325 309.904 296.35 309.904 296.35 C 309.904 296.35 309.181 321.353 304.048 330.421 C 295.339 345.806 278.752 354.77 278.752 354.77 C 278.752 354.77 276.525 357.531 277.683 359.725 C 279.887 363.9 291.107 367.999 291.107 367.999 C 291.107 367.999 284.687 372.813 280.986 374.224 C 275.292 376.394 271.385 378.517 262.991 377.441 C 254.597 376.365 250.828 370.645 250.341 370.645 Z M 191.266 310.417 C 192.004 308.448 171.299 299.859 170.852 259.848 C 170.405 219.838 203.138 186.702 243.964 185.837 C 284.79 184.972 320.214 217.688 318.695 256.716 C 317.175 295.744 301.689 302.788 301.317 303.334 M 237.635 421.771 C 198.883 420.013 135.872 394.539 107.596 351.389 C 89.952 324.463 80.61 303.144 78.915 260.363 C 74.451 147.704 180.511 87.931 242.043 86.514 C 303.575 85.097 413.011 136.348 409.605 252.334 C 406.199 368.32 326.097 413.742 266.454 421.771 M 106.964 350.313 L 178.491 296.413 M 79.925 246.057 L 172.008 248.152 M 132.766 137.603 L 196.654 203.586 M 241.981 87.033 L 242.696 185.738 M 289.765 199.08 L 357.2 132.375 M 320.304 250.003 L 408.609 252.05 M 308.834 298.513 L 379.984 350.415" style="stroke: rgb(0, 0, 0); fill: rgba(216, 216, 216, 0); stroke-width: 12px;"/>
  </g>
</svg>