<?xml version="1.0" encoding="utf-8"?>
<svg viewBox="9.0306 11.1805 475.715 480.3204" xmlns="http://www.w3.org/2000/svg">
  <defs>
    <filter id="gaussian-blur-filter-2" color-interpolation-filters="sRGB" x="-50%" y="-50%" width="200%" height="200%">
      <feGaussianBlur stdDeviation="10 10" edgeMode="none"/>
    </filter>
    <filter id="gaussian-blur-filter-3" color-interpolation-filters="sRGB" x="-50%" y="-50%" width="200%" height="200%">
      <feGaussianBlur stdDeviation="1 1" edgeMode="none"/>
    </filter>
  </defs>
  <path style="stroke: rgb(0, 0, 0); stroke-miterlimit: 1; paint-order: fill; fill: rgb(70, 64, 110); stroke-width: 16px; filter: none; transform-origin: 244.081px 252.286px;" d="M 11.982 71.714 L 59.597 15.337 L 430.463 14.079 L 481.81 70.614 L 481.089 424.323 L 431.167 484.733 L 64.137 488.571 L 13.819 422.462 L 11.982 71.714 Z" transform="matrix(0.999922096729, 0.012484001927, -0.012484001927, 0.999922096729, -0.01972545236, -0.019525429471)"/>
  <g transform="matrix(1, 0, 0, 1, 1.1368683772161603e-13, 0)">
    <title>Melee</title>
    <path d="M 247.152 90.781 C 353.105 90.781 438.997 174.056 438.997 276.78 C 438.997 379.504 353.105 462.779 247.152 462.779 C 141.199 462.779 55.307 379.504 55.307 276.78 C 55.307 174.056 121.394 110.002 203.466 92.528 M 236.701 437.363 C 151.17 424.873 80.749 366.675 80.749 277.812 C 80.749 188.949 144.491 134.385 203.572 122.736 M 249.587 118.659 C 327.307 115.164 414.931 184.289 414.931 277.812 C 414.931 371.335 349.285 410.407 289.071 433.361 M 257.759 463.365 L 230.193 429.158 C 230.193 429.158 212.32 417.279 210.186 413.911 C 206.749 408.487 201.041 402.606 198.19 392.034 C 195.513 382.106 196.527 368.985 197.577 367.085 C 198.746 364.97 213.821 357.205 217.486 356.198 C 219.811 355.559 236.958 353.414 246.556 354.82 C 249.189 355.206 261.382 366.806 262.968 372.015 C 263.836 374.866 257.566 378.789 257.566 378.789 M 309.14 452.174 C 309.14 452.174 274.922 421.321 273.776 414.45 C 272.167 404.803 281.558 367.467 281.445 360.228 C 281.326 352.596 278.933 328.618 276.231 322.898 C 274.268 318.743 259.091 295.509 253.538 295.492 C 249.355 295.479 248.427 302.95 249.705 305.902 C 250.983 308.854 253.584 316.3 257.357 317.953 M 259.074 388.552 C 259.208 401.433 249.201 411.946 236.721 412.035 C 224.241 412.123 214.016 401.753 213.881 388.872 C 213.747 375.991 223.755 365.477 236.235 365.389 C 248.714 365.301 258.94 375.671 259.074 388.552 Z M 199.408 366.055 C 199.408 366.055 193.15 352.624 194.962 347.189 C 196.664 342.083 216.41 335.416 220.221 335.169 C 224.2 334.912 258.132 335.399 261.688 338.634 C 264.873 341.531 266.758 352.4 266.573 356.45 C 266.438 359.412 258.616 365.356 258.616 365.356 M 198.581 344.586 C 198.581 344.586 193.156 330.948 194.485 328.466 C 196.273 325.126 206.006 318.209 212.219 316.41 C 217.197 314.968 247.511 313.154 252.382 315.617 C 256.689 317.795 264.849 322.932 267.75 326.805 C 269.784 329.52 265.431 342.495 265.431 342.495 M 198.857 323.679 C 198.857 323.679 192.833 315.899 194.443 312.091 C 195.867 308.722 216.057 292.27 222.033 291.399 C 225.518 290.891 249.771 297.699 249.771 297.699 M 253.08 292.252 C 253.08 292.252 267.469 292.664 271.103 291.677 C 276.337 290.256 292.388 267.395 292.388 267.395 L 307.838 278.431 C 307.838 278.431 293.719 298.718 289.195 302.118 C 284.461 305.676 279.777 306.226 271.46 310.398 M 191.522 313.471 C 185.051 312.41 175.009 310.32 170.164 306.022 C 166.803 303.041 154.989 288.64 154.989 288.64 L 169.888 276.224 C 169.888 276.224 183.284 290.255 187.546 292.386 C 191.468 294.347 215.693 293.63 215.693 293.63 M 204.343 291.327 L 202.915 287.994 C 202.915 287.994 202.597 157.036 204.343 76.614 C 204.575 65.911 223.862 36.147 223.862 36.147 C 223.862 36.147 245.573 66.619 246.238 76.138 C 251.466 150.983 254.332 291.327 254.332 291.327 M 221.958 291.803 C 221.958 291.803 222.003 195.952 221.958 148.026 C 221.953 142.874 229.099 133.268 229.099 133.268 C 229.099 133.268 236.037 141.438 236.241 148.978 C 237.535 196.732 238.145 292.279 238.145 292.279 L 221.958 291.803 Z" style="stroke: rgb(0, 0, 0); fill: none; stroke-width: 8px;"/>
    <path d="M 246.364 91.312 C 352.317 91.312 438.209 174.587 438.209 277.311 C 438.209 380.035 352.317 463.31 246.364 463.31 C 140.411 463.31 54.519 380.035 54.519 277.311 C 54.519 174.587 120.606 110.533 202.678 93.059 M 235.913 437.894 C 150.382 425.404 79.961 367.206 79.961 278.343 C 79.961 189.48 143.703 134.916 202.784 123.267 M 248.799 119.19 C 326.519 115.695 414.143 184.82 414.143 278.343 C 414.143 371.866 348.497 410.938 288.283 433.892 M 256.971 463.896 L 229.405 429.689 C 229.405 429.689 211.532 417.81 209.398 414.442 C 205.961 409.018 200.253 403.137 197.402 392.565 C 194.725 382.637 195.739 369.516 196.789 367.616 C 197.958 365.501 213.033 357.736 216.698 356.729 C 219.023 356.09 236.17 353.945 245.768 355.351 C 248.401 355.737 260.594 367.337 262.18 372.546 C 263.048 375.397 256.778 379.32 256.778 379.32 M 308.352 452.705 C 308.352 452.705 274.134 421.852 272.988 414.981 C 271.379 405.334 280.77 367.998 280.657 360.759 C 280.538 353.127 278.145 329.149 275.443 323.429 C 273.48 319.274 258.303 296.04 252.75 296.023 C 248.567 296.01 247.639 303.481 248.917 306.433 C 250.195 309.385 252.796 316.831 256.569 318.484 M 258.286 389.083 C 258.42 401.964 248.413 412.477 235.933 412.566 C 223.453 412.654 213.228 402.284 213.093 389.403 C 212.959 376.522 222.967 366.008 235.447 365.92 C 247.926 365.832 258.152 376.202 258.286 389.083 Z M 198.62 366.586 C 198.62 366.586 192.362 353.155 194.174 347.72 C 195.876 342.614 215.622 335.947 219.433 335.7 C 223.412 335.443 257.344 335.93 260.9 339.165 C 264.085 342.062 265.97 352.931 265.785 356.981 C 265.65 359.943 257.828 365.887 257.828 365.887 M 197.793 345.117 C 197.793 345.117 192.368 331.479 193.697 328.997 C 195.485 325.657 205.218 318.74 211.431 316.941 C 216.409 315.499 246.723 313.685 251.594 316.148 C 255.901 318.326 264.061 323.463 266.962 327.336 C 268.996 330.051 264.643 343.026 264.643 343.026 M 198.069 324.21 C 198.069 324.21 192.045 316.43 193.655 312.622 C 195.079 309.253 215.269 292.801 221.245 291.93 C 224.73 291.422 248.983 298.23 248.983 298.23 M 252.292 292.783 C 252.292 292.783 266.681 293.195 270.315 292.208 C 275.549 290.787 291.6 267.926 291.6 267.926 L 307.05 278.962 C 307.05 278.962 292.931 299.249 288.407 302.649 C 283.673 306.207 278.989 306.757 270.672 310.929 M 190.734 314.002 C 184.263 312.941 174.221 310.851 169.376 306.553 C 166.015 303.572 154.201 289.171 154.201 289.171 L 169.1 276.755 C 169.1 276.755 182.496 290.786 186.758 292.917 C 190.68 294.878 214.905 294.161 214.905 294.161 M 203.555 291.858 L 202.127 288.525 C 202.127 288.525 201.809 157.567 203.555 77.145 C 203.787 66.442 223.074 36.678 223.074 36.678 C 223.074 36.678 244.785 67.15 245.45 76.669 C 250.678 151.514 253.544 291.858 253.544 291.858 M 221.17 292.334 C 221.17 292.334 221.215 196.483 221.17 148.557 C 221.165 143.405 228.311 133.799 228.311 133.799 C 228.311 133.799 235.249 141.969 235.453 149.509 C 236.747 197.263 237.357 292.81 237.357 292.81 L 221.17 292.334 Z" style="fill: none; stroke: rgb(247, 196, 243); filter: url('#gaussian-blur-filter-2'); stroke-width: 10px;"/>
    <path d="M 246.365 90.411 C 352.318 90.411 438.21 173.686 438.21 276.41 C 438.21 379.134 352.318 462.409 246.365 462.409 C 140.412 462.409 54.52 379.134 54.52 276.41 C 54.52 173.686 120.607 109.632 202.679 92.158 M 235.914 436.993 C 150.383 424.503 79.962 366.305 79.962 277.442 C 79.962 188.579 143.704 134.015 202.785 122.366 M 248.8 118.289 C 326.52 114.794 414.144 183.919 414.144 277.442 C 414.144 370.965 348.498 410.037 288.284 432.991 M 256.972 462.995 L 229.406 428.788 C 229.406 428.788 211.533 416.909 209.399 413.541 C 205.962 408.117 200.254 402.236 197.403 391.664 C 194.726 381.736 195.74 368.615 196.79 366.715 C 197.959 364.6 213.034 356.835 216.699 355.828 C 219.024 355.189 236.171 353.044 245.769 354.45 C 248.402 354.836 260.595 366.436 262.181 371.645 C 263.049 374.496 256.779 378.419 256.779 378.419 M 308.353 451.804 C 308.353 451.804 274.135 420.951 272.989 414.08 C 271.38 404.433 280.771 367.097 280.658 359.858 C 280.539 352.226 278.146 328.248 275.444 322.528 C 273.481 318.373 258.304 295.139 252.751 295.122 C 248.568 295.109 247.64 302.58 248.918 305.532 C 250.196 308.484 252.797 315.93 256.57 317.583 M 258.287 388.182 C 258.421 401.063 248.414 411.576 235.934 411.665 C 223.454 411.753 213.229 401.383 213.094 388.502 C 212.96 375.621 222.968 365.107 235.448 365.019 C 247.927 364.931 258.153 375.301 258.287 388.182 Z M 198.621 365.685 C 198.621 365.685 192.363 352.254 194.175 346.819 C 195.877 341.713 215.623 335.046 219.434 334.799 C 223.413 334.542 257.345 335.029 260.901 338.264 C 264.086 341.161 265.971 352.03 265.786 356.08 C 265.651 359.042 257.829 364.986 257.829 364.986 M 197.794 344.216 C 197.794 344.216 192.369 330.578 193.698 328.096 C 195.486 324.756 205.219 317.839 211.432 316.04 C 216.41 314.598 246.724 312.784 251.595 315.247 C 255.902 317.425 264.062 322.562 266.963 326.435 C 268.997 329.15 264.644 342.125 264.644 342.125 M 198.07 323.309 C 198.07 323.309 192.046 315.529 193.656 311.721 C 195.08 308.352 215.27 291.9 221.246 291.029 C 224.731 290.521 248.984 297.329 248.984 297.329 M 252.293 291.882 C 252.293 291.882 266.682 292.294 270.316 291.307 C 275.55 289.886 291.601 267.025 291.601 267.025 L 307.051 278.061 C 307.051 278.061 292.932 298.348 288.408 301.748 C 283.674 305.306 278.99 305.856 270.673 310.028 M 190.735 313.101 C 184.264 312.04 174.222 309.95 169.377 305.652 C 166.016 302.671 154.202 288.27 154.202 288.27 L 169.101 275.854 C 169.101 275.854 182.497 289.885 186.759 292.016 C 190.681 293.977 214.906 293.26 214.906 293.26 M 203.556 290.957 L 202.128 287.624 C 202.128 287.624 201.81 156.666 203.556 76.244 C 203.788 65.541 223.075 35.777 223.075 35.777 C 223.075 35.777 244.786 66.249 245.451 75.768 C 250.679 150.613 253.545 290.957 253.545 290.957 M 221.171 291.433 C 221.171 291.433 221.216 195.582 221.171 147.656 C 221.166 142.504 228.312 132.898 228.312 132.898 C 228.312 132.898 235.25 141.068 235.454 148.608 C 236.748 196.362 237.358 291.909 237.358 291.909 L 221.171 291.433 Z" style="fill: none; stroke: rgb(247, 196, 243); filter: url('#gaussian-blur-filter-3'); stroke-width: 7px;"/>
  </g>
</svg>