<?xml version="1.0" encoding="UTF-8" standalone="no"?><!DOCTYPE svg PUBLIC "-//W3C//DTD SVG 1.1//EN" "http://www.w3.org/Graphics/SVG/1.1/DTD/svg11.dtd"><svg width="100%" height="100%" viewBox="0 0 246 246" version="1.1" xmlns="http://www.w3.org/2000/svg" xmlns:xlink="http://www.w3.org/1999/xlink" xml:space="preserve" xmlns:serif="http://www.serif.com/" style="fill-rule:evenodd;clip-rule:evenodd;stroke-linecap:round;stroke-linejoin:round;stroke-miterlimit:1.5;"><path d="M8.171,39.219l23.881,-31.293l171.697,-0.823l30.469,31.292l0,170.874l-26.763,27.587l-175.403,-0.412l-21.823,-27.175l-2.058,-170.05Z" style="fill:#433e66;stroke:#000;stroke-width:7px;"/><g><path d="M99.908,147.549c0,0 -5.922,-2.418 -8.601,-4.132c-3.022,-1.932 -9.529,-7.463 -9.529,-7.463l5.903,-6.113c-0,-0 4.019,6.999 7.252,8.685c3.232,1.687 12.143,1.434 12.143,1.434l8.643,-6.325l8.433,6.114c-0,-0 11.784,-2.403 15.009,-4.68c2.717,-1.918 4.343,-8.981 4.343,-8.981l7.758,4.596c0,-0 -4.245,6.474 -7.294,8.728c-3.496,2.583 -13.682,6.772 -13.682,6.772" style="fill:none;stroke:#000;stroke-width:4px;stroke-linecap:butt;stroke-linejoin:bevel;stroke-miterlimit:1;"/><path d="M121.88,36.293c51.549,0.673 93.192,42.845 93.192,94.693c0,52.267 -42.319,94.701 -94.444,94.701c-52.125,0 -94.444,-42.434 -94.444,-94.701c0,-47.155 34.446,-86.307 79.462,-93.514" style="fill:none;stroke:#000;stroke-width:5px;stroke-linecap:butt;stroke-linejoin:miter;stroke-miterlimit:1;"/><path d="M120.856,216.938c-0.076,-0 -0.152,-0 -0.228,-0c-46.444,-0 -84.15,-37.937 -84.15,-84.665c-0,-41.464 29.689,-76.005 68.827,-83.262" style="fill:none;stroke:#000;stroke-width:5px;stroke-linecap:butt;stroke-linejoin:miter;stroke-miterlimit:1;"/><path d="M122.734,47.634c45.473,1.126 82.045,38.619 82.045,84.639c-0,38.026 -24.971,70.231 -59.301,80.907" style="fill:none;stroke:#000;stroke-width:5px;stroke-linecap:butt;stroke-linejoin:miter;stroke-miterlimit:1;"/><path d="M124.244,224.667l-3.388,-7.729" style="fill:none;stroke:#000;stroke-width:4px;stroke-linecap:butt;stroke-linejoin:miter;stroke-miterlimit:1;"/><path d="M120.856,216.938l-4.61,-10.519c0,-0 -12.552,-11.493 -14.092,-13.624c-1.846,-2.554 -2.536,-5.924 -3.244,-8.879c-0.692,-2.887 -1.003,-8.85 -1.003,-8.85c0,0 13.8,-8.033 17.074,-8.069c1.376,-0.016 14.772,7.156 17.263,9.177c0.97,0.787 -1.235,2.577 -2.319,2.944c-1.084,0.368 -1.214,0.694 -4.187,-0.739c-0.224,-0.109 -0.969,-0.593 -1.67,-1.038" style="fill:none;stroke:#000;stroke-width:4px;stroke-linecap:butt;stroke-linejoin:miter;stroke-miterlimit:1;"/><path d="M124.068,177.341c-0.547,-0.347 -1.066,-0.671 -1.292,-0.775c-2.209,-1.018 -3.906,-1.252 -4.984,-1.312c-2.913,-0.16 -6.235,2.117 -7.449,4.181c-1.213,2.063 -1.059,6.084 0.167,8.201c1.226,2.117 4.559,4.544 7.187,4.502c1.421,-0.023 4.006,-0.246 5.616,-1.311c1.368,-0.905 3.165,-3.376 3.496,-4.947c0.173,-0.82 0.337,-3.485 -0.275,-5.13c-0.673,-1.805 -1.81,-2.935 -2.466,-3.409" style="fill:none;stroke:#000;stroke-width:4px;stroke-linecap:butt;stroke-linejoin:miter;stroke-miterlimit:1;"/><path d="M99.025,184.937l-3.376,-10.357c-0,0 -2.479,-7.14 -0.702,-9.012c1.682,-1.772 17.024,-7.649 20.425,-8.066c1.885,-0.231 9.523,5.441 9.523,5.441c-0,-0 7.771,5.633 7.977,7.254c0.207,1.621 -6.738,2.471 -6.738,2.471" style="fill:none;stroke:#000;stroke-width:4px;stroke-linecap:butt;stroke-linejoin:miter;stroke-miterlimit:1;"/><path d="M95.544,165.9c0,0 -1.17,-7.307 -0.261,-8.302c1.862,-2.04 16.865,-9.991 19.786,-10.033c2.567,-0.038 9.042,5.378 11.77,7.538c1.858,1.471 4.148,3.804 4.601,5.421c0.42,1.501 -1.882,4.282 -1.882,4.282" style="fill:none;stroke:#000;stroke-width:4px;stroke-linecap:butt;stroke-linejoin:miter;stroke-miterlimit:1;"/><path d="M96.37,156.709c-0,-0 1.028,-7.346 2.168,-8.475c1.02,-1.01 14.8,-7.878 16.781,-7.842c1.338,0.024 9.33,4.633 10.751,6.324c1.266,1.507 2.867,9.613 2.867,9.613" style="fill:none;stroke:#000;stroke-width:4px;stroke-linecap:butt;stroke-linejoin:miter;stroke-miterlimit:1;"/><path d="M152.084,220.965c0,-0 -3.106,-3.55 -6.606,-7.785" style="fill:none;stroke:#000;stroke-width:4px;stroke-linecap:butt;stroke-linejoin:miter;stroke-miterlimit:1;"/><path d="M145.478,213.18c-4.229,-5.117 -9.033,-11.234 -9.626,-13.297c-0.741,-2.577 2.72,-11.006 2.951,-14.124c0.216,-2.912 -0.66,-21.427 -2.108,-24.876c-0.693,-1.651 -5.029,-8.993 -8.248,-14.804c-1.224,-2.208 -2.32,-5.898 -3.598,-6.855c-1.034,-0.774 -2.464,4.246 -2.464,4.246" style="fill:none;stroke:#000;stroke-width:4px;stroke-linecap:butt;stroke-linejoin:miter;stroke-miterlimit:1;"/><path d="M103.123,137.799c-0,-0 1.296,-57.071 2.182,-88.788c0.123,-4.41 0.239,-8.331 0.341,-11.539c0.044,-1.378 -0.091,2.742 -0.052,1.645c0.173,-4.841 7.859,-24.064 7.859,-24.064c-0,-0 4.216,8.698 6.693,15.309c0.916,2.444 2.457,10.733 1.82,8.004c-0.221,-0.946 -0.105,-1.192 0,-0c0.276,3.12 0.477,4.903 0.768,9.268c2.111,31.574 4.461,89.822 4.461,89.822" style="fill:none;stroke:#000;stroke-width:4px;stroke-linejoin:bevel;stroke-miterlimit:1;"/><path d="M113.864,134.858l0.379,-82.386l2.825,82.386" style="fill:none;stroke:#000;stroke-width:3px;stroke-linejoin:miter;stroke-miterlimit:1;"/></g></svg>