<?xml version="1.0" encoding="utf-8"?>
<svg viewBox="9.0306 11.1805 475.715 480.3204" xmlns="http://www.w3.org/2000/svg">
  <path style="stroke: rgb(0, 0, 0); stroke-miterlimit: 1; paint-order: fill; fill: rgb(70, 64, 110); stroke-width: 16px; filter: none; transform-origin: 244.081px 252.286px;" d="M 11.982 71.714 L 59.597 15.337 L 430.463 14.079 L 481.81 70.614 L 481.089 424.323 L 431.167 484.733 L 64.137 488.571 L 13.819 422.462 L 11.982 71.714 Z" transform="matrix(0.999922096729, 0.012484001927, -0.012484001927, 0.999922096729, -0.01972545236, -0.019525429471)"/>
  <path d="M 247.152 90.781 C 353.105 90.781 438.997 174.056 438.997 276.78 C 438.997 379.504 353.105 462.779 247.152 462.779 C 141.199 462.779 55.307 379.504 55.307 276.78 C 55.307 174.056 121.394 110.002 203.466 92.528 M 236.701 437.363 C 151.17 424.873 80.749 366.675 80.749 277.812 C 80.749 188.949 144.491 134.385 203.572 122.736 M 249.587 118.659 C 327.307 115.164 414.931 184.289 414.931 277.812 C 414.931 371.335 349.285 410.407 289.071 433.361 M 257.759 463.365 L 230.193 429.158 C 230.193 429.158 212.32 417.279 210.186 413.911 C 206.749 408.487 201.041 402.606 198.19 392.034 C 195.513 382.106 196.527 368.985 197.577 367.085 C 198.746 364.97 213.821 357.205 217.486 356.198 C 219.811 355.559 236.958 353.414 246.556 354.82 C 249.189 355.206 261.382 366.806 262.968 372.015 C 263.836 374.866 257.566 378.789 257.566 378.789 M 309.14 452.174 C 309.14 452.174 274.922 421.321 273.776 414.45 C 272.167 404.803 281.558 367.467 281.445 360.228 C 281.326 352.596 278.933 328.618 276.231 322.898 C 274.268 318.743 259.091 295.509 253.538 295.492 C 249.355 295.479 248.427 302.95 249.705 305.902 C 250.983 308.854 253.584 316.3 257.357 317.953 M 259.074 388.552 C 259.208 401.433 249.201 411.946 236.721 412.035 C 224.241 412.123 214.016 401.753 213.881 388.872 C 213.747 375.991 223.755 365.477 236.235 365.389 C 248.714 365.301 258.94 375.671 259.074 388.552 Z M 199.408 366.055 C 199.408 366.055 193.15 352.624 194.962 347.189 C 196.664 342.083 216.41 335.416 220.221 335.169 C 224.2 334.912 258.132 335.399 261.688 338.634 C 264.873 341.531 266.758 352.4 266.573 356.45 C 266.438 359.412 258.616 365.356 258.616 365.356 M 198.581 344.586 C 198.581 344.586 193.156 330.948 194.485 328.466 C 196.273 325.126 206.006 318.209 212.219 316.41 C 217.197 314.968 247.511 313.154 252.382 315.617 C 256.689 317.795 264.849 322.932 267.75 326.805 C 269.784 329.52 265.431 342.495 265.431 342.495 M 198.857 323.679 C 198.857 323.679 192.833 315.899 194.443 312.091 C 195.867 308.722 216.057 292.27 222.033 291.399 C 225.518 290.891 249.771 297.699 249.771 297.699 M 253.08 292.252 C 253.08 292.252 267.469 292.664 271.103 291.677 C 276.337 290.256 292.388 267.395 292.388 267.395 L 307.838 278.431 C 307.838 278.431 293.719 298.718 289.195 302.118 C 284.461 305.676 279.777 306.226 271.46 310.398 M 191.522 313.471 C 185.051 312.41 175.009 310.32 170.164 306.022 C 166.803 303.041 154.989 288.64 154.989 288.64 L 169.888 276.224 C 169.888 276.224 183.284 290.255 187.546 292.386 C 191.468 294.347 215.693 293.63 215.693 293.63 M 204.343 291.327 L 202.915 287.994 C 202.915 287.994 202.597 157.036 204.343 76.614 C 204.575 65.911 223.862 36.147 223.862 36.147 C 223.862 36.147 245.573 66.619 246.238 76.138 C 251.466 150.983 254.332 291.327 254.332 291.327 M 221.958 291.803 C 221.958 291.803 222.003 195.952 221.958 148.026 C 221.953 142.874 229.099 133.268 229.099 133.268 C 229.099 133.268 236.037 141.438 236.241 148.978 C 237.535 196.732 238.145 292.279 238.145 292.279 L 221.958 291.803 Z" style="stroke: rgb(0, 0, 0); fill: none; stroke-width: 8px;" transform="matrix(1, 0, 0, 1, 1.1368683772161603e-13, 0)"/>
</svg>