<?xml version="1.0" encoding="UTF-8" standalone="no"?><!DOCTYPE svg PUBLIC "-//W3C//DTD SVG 1.1//EN" "http://www.w3.org/Graphics/SVG/1.1/DTD/svg11.dtd"><svg width="100%" height="100%" viewBox="0 0 246 246" version="1.1" xmlns="http://www.w3.org/2000/svg" xmlns:xlink="http://www.w3.org/1999/xlink" xml:space="preserve" xmlns:serif="http://www.serif.com/" style="fill-rule:evenodd;clip-rule:evenodd;stroke-linecap:round;stroke-linejoin:round;stroke-miterlimit:1.5;"><path d="M8.171,39.219l23.881,-31.293l171.697,-0.823l30.469,31.292l0,170.874l-26.763,27.587l-175.403,-0.412l-21.823,-27.175l-2.058,-170.05Z" style="fill:#433e66;stroke:#000;stroke-width:7px;"/><path d="M205.213,166.631c-15.873,29.751 -47.465,50.05 -83.813,50.05c-52.267,-0 -94.701,-41.973 -94.701,-93.672c0,-51.699 42.434,-93.672 94.701,-93.672c36.6,-0 68.379,20.581 84.141,50.672c6.748,12.88 10.561,27.503 10.561,43c-0,13.306 -2.811,25.967 -7.877,37.435" style="fill:none;stroke:#000;stroke-width:5px;stroke-linecap:butt;"/><path d="M195.437,164.348c-14.497,25.815 -42.141,43.274 -73.831,43.274c-46.699,0 -84.613,-37.914 -84.613,-84.613c-0,-11.845 2.439,-23.124 6.841,-33.363" style="fill:none;stroke:#000;stroke-width:5px;stroke-linecap:butt;"/><path d="M45.964,86.407c-0.039,-0.256 0.672,-1.389 0.785,-1.621c0.348,-0.713 0.706,-1.42 1.072,-2.12c1.757,-3.359 3.718,-6.569 5.867,-9.616" style="fill:none;stroke:#000;stroke-width:5px;stroke-linecap:butt;"/><path d="M56.139,69.753c15.192,-19.424 38.474,-31.358 65.467,-31.358c46.7,0 84.614,37.914 84.614,84.614c-0,10.203 -1.81,19.986 -5.126,29.046" style="fill:none;stroke:#000;stroke-width:5px;stroke-linecap:butt;"/><path d="M137.566,128.227l-5.35,10.463l-8.96,13.175c0,0 -3.553,5.027 -5.534,7.379c-2.501,2.971 -9.476,10.446 -9.476,10.446c0,-0 -6.227,4.536 -9.497,6.566c-4.23,2.627 -12.611,6.301 -15.885,9.192c-2.243,1.981 -3.11,5.231 -3.759,8.153c-0.714,3.215 -0.526,11.139 -0.526,11.139c-0,-0 1.109,-10.483 4.529,-13.999c3.801,-3.909 12.489,-5.772 18.278,-9.451c5.835,-3.707 11.843,-7.754 16.73,-12.793c5.333,-5.499 15.264,-20.196 15.264,-20.196c0,0 5.314,-9.385 9.443,-17.312" style="fill:none;stroke:#000;stroke-width:4px;stroke-linecap:butt;"/><path d="M144.539,127.638c0.493,-0.984 0.947,-1.912 1.345,-2.757c2.129,-4.513 4.755,-9.749 7.055,-14.926c2.096,-4.717 3.922,-9.385 4.856,-13.412c1.682,-7.25 0.814,-14.91 0.682,-21.483c-0.121,-6.004 -1.404,-13.285 -1.476,-17.955c-0.052,-3.372 1.045,-10.063 1.045,-10.063l3.705,-8.235c0,-0 -7.092,9.966 -8.654,14.514c-1.386,4.034 -0.717,12.775 -0.717,12.775c-0,0 0.669,8.229 0.717,12.354c0.056,4.896 0.752,11.297 -0.38,17.023c-1.233,6.235 -8.643,20.027 -8.643,20.027l-4.787,9.362" style="fill:none;stroke:#000;stroke-width:4px;stroke-linecap:butt;"/><path d="M85.086,183.814l34.736,-64.907" style="fill:none;stroke:#000;stroke-width:3px;"/><path d="M121.628,115.528l30.722,-57.924" style="fill:none;stroke:#000;stroke-width:3px;"/><path d="M119.822,118.907l64.122,33.684l1.632,-3.264l-130.03,-68.725l-1.713,3.639l65.989,34.666" style="fill:none;stroke:#000;stroke-width:3px;"/><path d="M40.705,87.854l13.128,-3.613l21.198,11.136l-12.233,3.545l-18.964,-9.276l-3.129,-1.792Z" style="fill:none;stroke:#000;stroke-width:3px;"/><path d="M53.688,73.05l-1.515,-5.265l3.966,1.968l18.275,9.858l0.783,11.377l-19.651,-10.386l-1.858,-7.552Z" style="fill:none;stroke:#000;stroke-width:3px;"/><path d="M201.094,152.055c1.952,2.106 4.649,5.337 7.131,8.389c3.474,4.271 6.527,8.194 6.527,8.194c0,-0 -4.491,-0.905 -9.539,-2.007c-3.408,-0.744 -7.07,-1.578 -9.776,-2.283c-2.021,-0.527 -3.508,-0.983 -3.958,-1.276c-1.689,-1.1 -7.535,-10.481 -7.535,-10.481l1.632,-3.264c-0,0 10.544,-0.409 12.986,0.422c0.412,0.14 1.331,1.01 2.532,2.306" style="fill:none;stroke:#000;stroke-width:3px;"/></svg>