<?xml version="1.0" encoding="UTF-8" standalone="no"?><!DOCTYPE svg PUBLIC "-//W3C//DTD SVG 1.1//EN" "http://www.w3.org/Graphics/SVG/1.1/DTD/svg11.dtd"><svg width="100%" height="100%" viewBox="0 0 1325 855" version="1.1" xmlns="http://www.w3.org/2000/svg" xmlns:xlink="http://www.w3.org/1999/xlink" xml:space="preserve" xmlns:serif="http://www.serif.com/" style="fill-rule:evenodd;clip-rule:evenodd;stroke-linecap:round;stroke-linejoin:round;stroke-miterlimit:1.5;"><path d="M1324.35,812.076l-35.604,41.341l-225.518,1.03l-1.074,-1.075l-2.202,1.075l-237.074,-0.067l-0.645,-1.772l-3.223,1.88l-429.82,-0.226l-3.009,-3.062l-5.103,2.686l-59.904,0.639l-2.901,-3.867l-4.136,3.438l-71.311,0.405l-2.303,-3.507l-2.957,3.266l-196.278,-0.345l-40.297,-39.691l0,-59.875l4.814,-6.084l-4.482,-7.044l0.498,-605.656l11.066,-11.475l-10.451,-8.402l-0.504,-70.673l40.561,-40.561" style="fill:#1e1a30;stroke:#000;stroke-width:2.08px;"/><path d="M42.494,4.454l156.978,-0l11.607,5.688l5.603,-8.005l267.759,0.8l5.173,5.973l5.77,-5.875l554.508,-0.75l5.328,5.533l4.918,-5.738l96.851,-0.042l6.819,6.61l8.264,-6.008l53.476,-0.137l3.202,3.522l2.562,-3.522l57.588,-0l35.629,35.629l-0.551,51.664l-2.203,2.203l2.308,2.833l0.661,363.796l-3.016,3.934l2.361,2.754l0.262,346.76l-3.069,0.836l-7.035,-3.909l-32.209,-14.768l-1232.61,-778.431l-6.933,-11.35Z" style="fill:#766aae;"/><path d="M42.494,4.454l156.978,-0l11.607,5.688l5.603,-8.005l267.759,0.8l5.173,5.973l5.77,-5.875l554.508,-0.75l5.328,5.533l4.918,-5.738l96.851,-0.042l6.819,6.61l8.264,-6.008l53.476,-0.137l3.202,3.522l2.562,-3.522l57.588,-0l35.629,35.629l-0.551,51.664l-2.203,2.203l2.308,2.833l0.661,363.796l-3.016,3.934l2.361,2.754l0.262,346.76" style="fill:none;stroke:#000;stroke-width:2.08px;"/><path d="M42.494,4.454l6.933,11.35l1232.61,778.431l32.209,14.768l7.035,3.909l3.069,-0.836" style="fill:none;"/><path d="M46.32,845.85l-34.02,-37.222l-0,-55.633l4.402,-6.003l-2.401,-6.804l1.201,-39.623l0.8,-32.019l-3.202,-28.016l-0.4,-29.217l4.803,-31.619l-2.463,-12.762l-0.96,-96.056l1.222,-44.223l-1.601,-62.757l1.394,-15.602l-3.842,-17.931l1.793,-19.979l0.496,-61.157l-2.207,-83.48l-1,-25.514l5.503,-12.508l18.937,-1.945l-18.524,-5.082l-2.531,-69.783l34.617,-35.169l63.586,-2.11l18.411,1.601l67.639,-2.401l11.607,6.003l9.993,-4.359l65.326,-1.084l30.417,1.2l34.821,-0.4l30.818,-0.8l63.236,-1.201l30.018,1.201l15.609,3.201l1.761,2.466l8.394,-4.721l31.587,-0.308l35.656,-0.41l41.394,0.41l32.172,-0.41l43.151,-0.12l44.826,0.512l105.572,1.436l13.32,-1.537l72.49,-0.256l20.457,0.132l34.222,-0.409l29.303,0.614l24.386,-1.024l13.934,0.205l8.812,2.664l4.303,2.459l1.434,2.459l4.918,-5.738l89.199,-1.628l8.196,3.279l3.115,4.262l2.295,4.59l2.787,-0.328l5.574,-9.344l8.525,-0l14.918,-0.328l17.869,-0.492l3.269,0.494l9.344,-3.279l56.727,1.008l31.763,32.018l1.11,35.999l-2.562,7.044l-3.202,1.922l-3.136,1.535l7.135,6.82l2.411,71.35l-2.241,14.409l-0.641,22.413l-0.64,14.728l0,20.812l1.323,39.844l0.545,53.039l-1.345,34.823l-0.329,47.657l-1.331,29.724l0.41,11.066l-4.509,1.844l5.652,7.442l2.162,105.393l-1.251,19.386l0,162.595l-0.625,10.006l-0,16.259l-1.876,28.141l-29.931,33.582l-78.012,1.918l-33.939,-1.601l-84.85,1.281l-11.847,0l-8.645,-4.803l-8.965,7.044l-47.708,-1.601l-24.334,1.601l-38.422,-0.32l-16.65,-0.96l-9.285,-0l-28.177,2.241l-19.211,0.32l-24.014,-0.32l-15.048,-0.961l-5.123,-0.32l-6.404,-9.926l-3.03,8.133l-25.001,1.844l-57.172,-0.82l-32.377,-1.434l-13.968,1.447l-66.885,-0.164l-42.46,-0.82l-19.344,0.164l-14.262,-1.803l-71.834,-1.114l-8.525,2.623l-14.295,1.049l-20.066,-0.262l-33.443,-0.131l-7.082,-0.131l-4.373,-6.81l-1.578,-1.342l-1.259,4.512l-2.833,2.937l-4.617,2.099l-55.711,0.419l-2.099,-5.77l-7.449,4.826l-63.885,0.867l-7.344,-5.771l-6.033,5.246l-180.537,1.498l-8.204,-2.141Z" style="fill:#473d71;stroke:#000;stroke-width:1.04px;"/><path d="M38.021,745.297l5.636,4.099l-0.513,43.289l18.956,23.566l172.132,1.793l5.123,3.33l2.562,-2.049l10.246,-3.842l62.786,-1.078l4.611,5.636l5.379,-4.611l55.073,-1.281l6.659,5.123l5.584,-4.458l56.946,-1.038l79.047,1.501l62.036,1.501l78.546,1.501l47.028,-2.502l26.515,1.001l35.521,1.501l34.02,-0l1.893,2.108l2.869,-3.073l37.408,1.931l37.142,-2.561l23.053,-0.641l66.919,0.321l76.525,0.32l5.123,4.803l4.483,-3.522l42.98,-2.892l33.197,1.844l17.623,0.82l37.091,-0.615l23.565,0.615l33.056,-0.104l15.369,-2.561l17.674,-18.699l1.834,-20.928l-0.96,-30.418l0.32,-21.773l0.32,-24.654l0,-23.374l1.452,-51.842l-0,-30.818l-1.201,-35.221l0.8,-25.214l-0.4,-38.823l0.4,-26.015l5.203,-4.803l-5.183,-4.931l0.748,-88.614l-1.281,-23.694c-0,0 -0.961,-16.97 -0.32,-20.492c0.64,-3.522 0.64,-24.334 0.64,-24.334l-1.864,-72.617l3.502,-13.508l-3.502,-33.52l1.485,-48.611l-0.592,-37.69l2.099,-1.889l-3.043,-4.931l-1.363,-23.938l-22.813,-24.014l-38.022,-1.601l-3.082,-0.753l0.492,2.623l-21.148,-0.984l8.853,-12.131l3.606,0.82l0.82,-4.426l10.984,-14.591l-25.083,22.951l-1.147,5.574l-30.656,-0.164l-4.263,-5.082l-4.098,4.59l-101.522,1.042l-3.115,-3.606l-5.082,3.606l-33.543,2.07l-92.534,0.64l-44.546,0.27l-18.852,0.82l-58.607,-0.41l-133.747,-0.252l-59.635,-2.001l-43.626,0.4l-33.619,-0.8l-30.018,1.2l-10.197,-5.523l-2.817,3.586l-74.54,1.024l-58.914,1.025l-22.029,-0l-23.31,-0.513l-20.492,1.794l-67.367,1.536l-6.148,-5.123l-4.444,5.809l-147.706,0.328l-21.593,21.284l0.41,54.919l-1.639,4.098l-5.943,2.664l5.533,3.689l1.24,83.581l-1.601,11.527l0.64,43.225l0.831,62.922l-0,12.807l-2.401,8.806l2.001,44.826l2.001,48.828l-1.891,6.594l-0,38.742l1.601,12.488l0.64,17.93l0.961,65.959l-0.701,9.924l0.321,24.014l-0.961,28.496l-0,36.822l-0.64,23.053l0.64,16.33l-1.281,4.482l0,6.724l-5.158,7.108Z" style="fill:#1e1a30;stroke:#000;stroke-width:2.08px;"/><path d="M51.168,792.664l-0,-723.472l16.431,-16.431l1191.13,-3.925l19.591,19.59l0.13,722.438l-15.213,15.213l-1197.57,3.35l-14.496,-16.763Z" style="fill:#3f1445;stroke:#000;stroke-width:2.08px;"/><path d="M240.723,850.182l-1.025,-28.074" style="fill:none;stroke:#000;stroke-width:1.04px;"/><path d="M319.822,848.543l-0,-28.894" style="fill:none;stroke:#000;stroke-width:1.04px;"/><path d="M385.814,851.042l0.918,-30.82" style="fill:none;stroke:#000;stroke-width:1.04px;"/><path d="M822.774,851.606l1.18,-2.229l-1.705,-12.591l-8,-15.868" style="fill:none;stroke:#000;stroke-width:1.04px;"/><path d="M1062.54,853.003l0.524,-10.886l0.787,-2.36l-0.787,-18.099" style="fill:none;stroke:#000;stroke-width:1.04px;"/><path d="M1321.25,462.249l-5.64,-2.492l-6.164,0.656l-8.918,0l-3.672,1.836" style="fill:none;stroke:#000;stroke-width:1.04px;"/><path d="M1321.93,92.47l-13.73,-1.844l-14.959,1.64" style="fill:none;stroke:#000;stroke-width:1.04px;"/><path d="M1215.31,28.484l7.213,8.656" style="fill:none;stroke:#000;stroke-width:1.04px;"/><path d="M1166.13,30.845l-0.787,-4.984l-0.787,-3.016l-0.394,-14.557" style="fill:none;stroke:#000;stroke-width:1.04px;"/><path d="M1057.08,33.579l0.394,-12.59l-1.574,-5.246l-0.656,-7.475" style="fill:none;stroke:#000;stroke-width:1.04px;"/><path d="M492.576,33.302l-1.259,-14.269l-1.259,-5.036l-0.168,-5.204" style="fill:none;stroke:#000;stroke-width:1.04px;"/><path d="M217.1,37.098l-6.295,-6.819l-1.049,-3.987l-0.105,-3.777l1.574,-4.197l0.21,-7.134" style="fill:none;stroke:#000;stroke-width:1.04px;"/><path d="M13.582,124.704l21.639,1.705" style="fill:none;stroke:#000;stroke-width:1.04px;"/><path d="M6.162,747.857l31.21,-2.363" style="fill:none;stroke:#000;stroke-width:1.04px;"/></svg>