<?xml version="1.0" encoding="UTF-8" standalone="no"?><!DOCTYPE svg PUBLIC "-//W3C//DTD SVG 1.1//EN" "http://www.w3.org/Graphics/SVG/1.1/DTD/svg11.dtd"><svg width="100%" height="100%" viewBox="0 0 246 246" version="1.1" xmlns="http://www.w3.org/2000/svg" xmlns:xlink="http://www.w3.org/1999/xlink" xml:space="preserve" xmlns:serif="http://www.serif.com/" style="fill-rule:evenodd;clip-rule:evenodd;stroke-linecap:round;stroke-linejoin:round;stroke-miterlimit:1.5;"><path d="M8.171,39.219l23.881,-31.293l171.697,-0.823l30.469,31.292l0,170.874l-26.763,27.587l-175.403,-0.412l-21.823,-27.175l-2.058,-170.05Z" style="fill:#433e66;stroke:#000;stroke-width:7px;"/><path d="M38.359,136.832l66.707,-44.236" style="fill:none;stroke:#000;stroke-width:3px;"/><ellipse cx="121.502" cy="122.53" rx="94.135" ry="94.574" style="fill:none;stroke:#000;stroke-width:5px;stroke-linecap:butt;"/><path d="M53.279,172.855c-10.221,-14.114 -16.257,-31.513 -16.257,-50.325c0,-47.11 37.854,-85.358 84.48,-85.358c46.626,0 84.48,38.248 84.48,85.358c-0,16.519 -4.654,31.949 -12.709,45.021" style="fill:none;stroke:#000;stroke-width:5px;stroke-linecap:butt;"/><path d="M179.846,184.238c-8.5,8.208 -18.69,14.642 -29.986,18.714" style="fill:none;stroke:#000;stroke-width:5px;stroke-linecap:butt;"/><path d="M95.311,203.699c-9.723,-3.205 -18.674,-8.145 -26.492,-14.459" style="fill:none;stroke:#000;stroke-width:5px;stroke-linecap:butt;"/><path d="M142.517,163.531c0,0 4.609,-1.829 8.179,-3.989c2.127,-1.286 2.56,-2.351 3.571,-3.392c2.238,-2.302 4.51,-9.346 4.51,-9.346" style="fill:none;stroke:#000;stroke-width:3px;"/><path d="M92.691,213.494c0,-0 1.68,-4.963 2.62,-9.795" style="fill:none;stroke:#000;stroke-width:3px;stroke-linecap:butt;"/><path d="M95.311,203.699c0.017,-0.085 0.033,-0.171 0.049,-0.257c0.348,-1.836 2.318,-4.278 2.23,-6.323c-0.179,-4.127 1.748,-11.495 -2.327,-15.925c-0.963,-1.047 -3.742,-6.089 -4.913,-9.436c-1.228,-3.509 -1.752,-9.16 -2.455,-11.614c-0.327,-1.144 -1.76,-3.108 -1.76,-3.108c0,0 -6.215,11.664 -9.348,17.482c-1.99,3.696 -5.441,10.064 -7.968,14.722" style="fill:none;stroke:#000;stroke-width:3px;stroke-linecap:butt;"/><path d="M68.819,189.24c-1.8,3.319 -3.131,5.77 -3.131,5.77l-2.022,2.921" style="fill:none;stroke:#000;stroke-width:3px;stroke-linecap:butt;"/><path d="M47.937,182.427c0,-0 2.646,-4.769 5.342,-9.572" style="fill:none;stroke:#000;stroke-width:3px;stroke-linecap:butt;"/><path d="M53.279,172.855c1.49,-2.655 2.995,-5.321 4.077,-7.198c2.876,-4.988 6.596,-10.639 8.815,-14.857c1.766,-3.355 4.502,-10.447 4.502,-10.447c-0,0 0.671,-8.606 2.45,-12.099c1.779,-3.493 7.133,-8.469 8.223,-8.858c1.299,-0.464 13.865,-0.638 18.485,-1.863c3.461,-0.917 7.136,-2.934 9.234,-5.485c0.782,-0.95 0.888,-13.657 0.888,-13.657" style="fill:none;stroke:#000;stroke-width:3px;stroke-linecap:butt;"/><path d="M152.645,211.277c0,-0 -1.125,-3.567 -2.607,-7.85c-0.056,-0.16 -0.115,-0.319 -0.178,-0.475" style="fill:none;stroke:#000;stroke-width:3px;stroke-linecap:butt;"/><path d="M149.86,202.952c-0.979,-2.435 -2.782,-4.431 -3.057,-6.369c-0.674,-4.757 -0.008,-12.641 1.543,-15.556c0.517,-0.97 2.487,-4.678 3.054,-6c3.232,-7.54 4.84,-20.912 4.84,-20.912c0,0 8.552,11.821 13.1,17.521c2.543,3.188 6.87,8.326 10.506,12.602" style="fill:none;stroke:#000;stroke-width:3px;stroke-linecap:butt;"/><path d="M179.846,184.238c3.506,4.124 6.368,7.446 6.368,7.446" style="fill:none;stroke:#000;stroke-width:3px;stroke-linecap:butt;"/><path d="M199.831,175.371c-0,0 -2.682,-3.132 -6.558,-7.82" style="fill:none;stroke:#000;stroke-width:3px;stroke-linecap:butt;"/><path d="M193.273,167.551c-1.61,-1.946 -3.425,-4.16 -5.339,-6.529c-7.03,-8.7 -15.002,-17.761 -18.324,-21.72c-2.311,-2.755 -1.941,-8.067 -4.051,-11.564c-2.131,-3.531 -7.103,-9.203 -8.735,-9.619c-1.798,-0.458 -11.588,-0.701 -15.595,-1.851c-3.155,-0.906 -7.875,-3.229 -8.451,-5.053c-0.911,-2.892 -1.254,-11.925 -1.254,-11.925" style="fill:none;stroke:#000;stroke-width:3px;stroke-linecap:butt;"/><path d="M105.01,63.788c-0.685,3.251 -1.215,9.096 -0.869,14.851c0.304,5.077 1.417,10.111 1.893,12.869c0.518,2.999 2.904,5.456 5.07,7.595c2.204,2.176 5.862,4.513 8.155,5.464c1.726,0.716 3.829,0.833 5.601,0.241c2.034,-0.679 4.822,-2.378 6.599,-4.314c1.988,-2.167 4.755,-5.338 5.332,-8.686c0.49,-2.847 1.922,-8.257 2.232,-13.399c0.376,-6.215 -0.462,-12.251 -1.066,-15.651c-0.659,-3.718 -4.195,-7.051 -7.781,-8.231c-1.938,-0.637 -5.18,-1.301 -8.132,-1.288c-3.189,0.014 -6.098,0.76 -8.276,1.561c-3.926,1.445 -7.896,4.895 -8.758,8.988Z" style="fill:none;stroke:#000;stroke-width:3px;stroke-linecap:butt;"/><path d="M83.953,149.926c0,-0 3.356,8.643 6.516,11.235c3.161,2.591 12.449,4.314 12.449,4.314" style="fill:none;stroke:#000;stroke-width:3px;"/><path d="M42.572,94.351l61.44,-12.288" style="fill:none;stroke:#000;stroke-width:3px;"/><path d="M66.797,57.838l35.811,10.182" style="fill:none;stroke:#000;stroke-width:3px;"/><path d="M99.097,40.284l14.395,13.341" style="fill:none;stroke:#000;stroke-width:3px;"/><path d="M129.094,54.028l12.484,-14.025" style="fill:none;stroke:#000;stroke-width:3px;"/><path d="M139.231,69.377l36.052,-10.134" style="fill:none;stroke:#000;stroke-width:3px;"/><path d="M139.857,82.407l62.88,19.036" style="fill:none;stroke:#000;stroke-width:3px;"/><path d="M136.68,92.274l67.953,47.929" style="fill:none;stroke:#000;stroke-width:3px;"/></svg>