<?xml version="1.0" encoding="UTF-8" standalone="no"?><!DOCTYPE svg PUBLIC "-//W3C//DTD SVG 1.1//EN" "http://www.w3.org/Graphics/SVG/1.1/DTD/svg11.dtd"><svg width="100%" height="100%" viewBox="0 0 500 500" version="1.1" xmlns="http://www.w3.org/2000/svg" xmlns:xlink="http://www.w3.org/1999/xlink" xml:space="preserve" xmlns:serif="http://www.serif.com/" style="fill-rule:evenodd;clip-rule:evenodd;stroke-linecap:round;stroke-linejoin:round;stroke-miterlimit:1.5;"><g id="Layer1"><path d="M55.357,420l297.94,-348.864" style="fill:none;stroke:#000;stroke-width:6.7px;"/><path d="M54.655,421.404c-0,0 -12.748,8.116 -17.155,12.882c-4.131,4.467 -7.857,10.119 -9.286,15.714c-1.428,5.595 -1.596,12.67 0.715,17.857c2.31,5.187 13.148,13.264 13.148,13.264c-0,-0 -4.131,-15.581 -1.04,-21.877c3.09,-6.296 11.561,-13.38 19.583,-15.901c13.464,-4.233 43.225,-4.564 61.201,-9.494c16.327,-4.479 32.82,-10.325 46.65,-20.091c20.739,-14.644 55.868,-46.119 77.784,-67.773c19.478,-19.245 37.67,-39.961 53.714,-62.15c18.44,-25.504 45.329,-66.172 56.93,-90.875c8.321,-17.719 9.744,-37.988 12.675,-57.343c3.147,-20.78 2.956,-53.671 6.206,-67.337c1.526,-6.418 7.055,-13.637 13.294,-14.66c6.239,-1.023 24.14,8.523 24.14,8.523c0,-0 -5.477,-17.339 -11.428,-21.429c-5.952,-4.089 -17.136,-5.368 -24.279,-3.107c-7.143,2.262 -14.416,9.472 -18.578,16.679c-4.287,7.422 -5.766,18.37 -7.143,27.857c-1.96,13.497 -1.699,35.591 -4.617,53.126c-2.933,17.619 -4.602,36.593 -12.978,52.588c-12.444,23.765 -38.618,61.884 -61.691,90c-25.401,30.953 -64.426,73.563 -90.714,95.714c-19.537,16.462 -45.826,29.22 -67.014,37.192c-19.047,7.166 -42.341,3.817 -60.117,10.641Z" style="fill:#292320;stroke:#000;stroke-width:6.7px;"/></g><g><path d="M0.418,0.544l-0.294,-0.382" style="fill:none;stroke:#000;stroke-width:0.23px;stroke-linecap:square;"/><path d="M0.044,499.964l0.2,-0.254" style="fill:none;stroke:#000;stroke-width:0.14px;stroke-linecap:square;"/><path d="M499.933,499.795l-0.432,-0.354" style="fill:none;stroke:#000;stroke-width:0.14px;stroke-linecap:square;"/><path d="M499.889,0.035l-0.147,0.491" style="fill:none;stroke:#000;stroke-width:0.14px;stroke-linecap:square;"/></g></svg>