<?xml version="1.0" encoding="UTF-8" standalone="no"?><!DOCTYPE svg PUBLIC "-//W3C//DTD SVG 1.1//EN" "http://www.w3.org/Graphics/SVG/1.1/DTD/svg11.dtd"><svg width="100%" height="100%" viewBox="0 0 350 450" version="1.1" xmlns="http://www.w3.org/2000/svg" xmlns:xlink="http://www.w3.org/1999/xlink" xml:space="preserve" xmlns:serif="http://www.serif.com/" style="fill-rule:evenodd;clip-rule:evenodd;stroke-linecap:round;stroke-linejoin:round;stroke-miterlimit:1.5;"><path d="M6.99,444.185l-3.586,-7.171l3.26,-30.64l-1.956,-23.469l-0.326,-40.744l-0.652,-30.314l3.644,-22.245l-4.482,-37.485l3.26,-37.485l-2.445,-39.93l0.537,-32.594l4.159,-21.399l-5.285,-22.252l0.33,-35.36l-0.409,-43.469l11.72,-16.038l33.406,0.035l29.859,-0.267l14.189,2.295l11.302,-0.29l14.779,-2.318l26.418,0.681l7.65,3.477l37.16,-1.053l6.955,-3.187l19.416,0.29l9.273,2.318l15.069,-2.029l12.461,0.87l8.983,1.738l12.463,0.664l14.837,-2.373l12.908,-0.594l16.173,0.297l5.193,3.857l8.739,-2.531l6.677,0.742l7.215,5.932l1.997,16.543l-2.967,8.715l0.742,7.417l1.298,6.861l0.13,11.706l-2.411,3.894l-0.37,4.45l1.854,4.636l0.875,13.916l-2.411,12.053l-0.742,9.272l2.411,11.126l0.588,38.803l-2.442,6.893l-0.464,15.298l0.928,6.258l0.927,8.808l0.232,28.279l-2.674,8.591l-1.159,15.646l2.616,6.375l2.226,7.788l-0.371,22.252l-3.895,4.45l-0.556,6.491l0.556,3.894l2.967,6.49l-0.251,17.978l1.623,21.325l-2.319,12.98l-0.695,17.616l1.391,9.735l2.318,17.385l-0.695,10.662l-0.232,17.616l-6.723,12.053l-7.842,-0.051l-5.956,-2.249l-7.718,0.061l-3.403,1.701l-12.898,0.135l-9.146,-2.16l-15.431,-0.119l-9.021,1.662l-18.175,0.425l-13.176,-1.661l-14.006,-0.356l-16.951,1.699l-10.35,0.38l-6.457,-2.184l-7.027,1.899l-28.203,-0.375l-14.243,-2.076l-14.244,1.038l-6.528,1.187l-16.748,-0.1l-10.682,-2.077l-8.309,1.335l-8.606,0l-10.534,0.149l-3.561,0.741l-27.004,0l-16.914,-0.445l-10.063,-0.773Z" style="fill-opacity:0.59;"/><clipPath id="_clip1"><path d="M6.99,444.185l-3.586,-7.171l3.26,-30.64l-1.956,-23.469l-0.326,-40.744l-0.652,-30.314l3.644,-22.245l-4.482,-37.485l3.26,-37.485l-2.445,-39.93l0.537,-32.594l4.159,-21.399l-5.285,-22.252l0.33,-35.36l-0.409,-43.469l11.72,-16.038l33.406,0.035l29.859,-0.267l14.189,2.295l11.302,-0.29l14.779,-2.318l26.418,0.681l7.65,3.477l37.16,-1.053l6.955,-3.187l19.416,0.29l9.273,2.318l15.069,-2.029l12.461,0.87l8.983,1.738l12.463,0.664l14.837,-2.373l12.908,-0.594l16.173,0.297l5.193,3.857l8.739,-2.531l6.677,0.742l7.215,5.932l1.997,16.543l-2.967,8.715l0.742,7.417l1.298,6.861l0.13,11.706l-2.411,3.894l-0.37,4.45l1.854,4.636l0.875,13.916l-2.411,12.053l-0.742,9.272l2.411,11.126l0.588,38.803l-2.442,6.893l-0.464,15.298l0.928,6.258l0.927,8.808l0.232,28.279l-2.674,8.591l-1.159,15.646l2.616,6.375l2.226,7.788l-0.371,22.252l-3.895,4.45l-0.556,6.491l0.556,3.894l2.967,6.49l-0.251,17.978l1.623,21.325l-2.319,12.98l-0.695,17.616l1.391,9.735l2.318,17.385l-0.695,10.662l-0.232,17.616l-6.723,12.053l-7.842,-0.051l-5.956,-2.249l-7.718,0.061l-3.403,1.701l-12.898,0.135l-9.146,-2.16l-15.431,-0.119l-9.021,1.662l-18.175,0.425l-13.176,-1.661l-14.006,-0.356l-16.951,1.699l-10.35,0.38l-6.457,-2.184l-7.027,1.899l-28.203,-0.375l-14.243,-2.076l-14.244,1.038l-6.528,1.187l-16.748,-0.1l-10.682,-2.077l-8.309,1.335l-8.606,0l-10.534,0.149l-3.561,0.741l-27.004,0l-16.914,-0.445l-10.063,-0.773Z"/></clipPath><g clip-path="url(#_clip1)"><path d="M6.203,15.519l10.311,-13.391l31.651,1.497l28.689,-2.608l15.359,4.636l11.302,-0.29l14.779,-2.318l26.418,0.681l7.65,3.477l37.16,-1.053l6.955,-3.187l19.416,0.29l9.273,2.318l15.069,-2.029l12.461,0.87l8.983,1.738l12.463,0.664l14.837,-2.373l12.908,-0.594l16.173,0.297l5.193,3.857l8.739,-2.531l6.677,0.742l9.088,6.119l0.079,10.427l-6.903,-3.231l-8.114,-1.391l-12.287,2.781l-7.651,-3.708l-10.896,-0.464l-17.014,2.43l-13.446,0.927l-13.678,-2.317l-14.373,-2.55l-13.247,4.744l-12.519,-3.94l-20.435,1.438l-9.78,5.07l-36.948,0l-10.01,-2.924l-17.677,-0l-11.302,0.869l-14.055,1.449l-21.055,-4.988l-29.959,1.525l-40.284,-2.959Z"/></g><path d="M6.99,444.185l-3.586,-7.171l3.26,-30.64l-1.956,-23.469l-0.326,-40.744l-0.652,-30.314l3.644,-22.245l-4.482,-37.485l3.26,-37.485l-2.445,-39.93l0.537,-32.594l4.159,-21.399l-5.285,-22.252l0.33,-35.36l-0.409,-43.469l11.72,-16.038l33.406,0.035l29.859,-0.267l14.189,2.295l11.302,-0.29l14.779,-2.318l26.418,0.681l7.65,3.477l37.16,-1.053l6.955,-3.187l19.416,0.29l9.273,2.318l15.069,-2.029l12.461,0.87l8.983,1.738l12.463,0.664l14.837,-2.373l12.908,-0.594l16.173,0.297l5.193,3.857l8.739,-2.531l6.677,0.742l7.215,5.932l1.997,16.543l-2.967,8.715l0.742,7.417l1.298,6.861l0.13,11.706l-2.411,3.894l-0.37,4.45l1.854,4.636l0.875,13.916l-2.411,12.053l-0.742,9.272l2.411,11.126l0.588,38.803l-2.442,6.893l-0.464,15.298l0.928,6.258l0.927,8.808l0.232,28.279l-2.674,8.591l-1.159,15.646l2.616,6.375l2.226,7.788l-0.371,22.252l-3.895,4.45l-0.556,6.491l0.556,3.894l2.967,6.49l-0.251,17.978l1.623,21.325l-2.319,12.98l-0.695,17.616l1.391,9.735l2.318,17.385l-0.695,10.662l-0.232,17.616l-6.723,12.053l-7.842,-0.051l-5.956,-2.249l-7.718,0.061l-3.403,1.701l-12.898,0.135l-9.146,-2.16l-15.431,-0.119l-9.021,1.662l-18.175,0.425l-13.176,-1.661l-14.006,-0.356l-16.951,1.699l-10.35,0.38l-6.457,-2.184l-7.027,1.899l-28.203,-0.375l-14.243,-2.076l-14.244,1.038l-6.528,1.187l-16.748,-0.1l-10.682,-2.077l-8.309,1.335l-8.606,0l-10.534,0.149l-3.561,0.741l-27.004,0l-16.914,-0.445l-10.063,-0.773Z" style="fill:none;stroke:#000;stroke-width:5.77px;"/><path d="M4.092,14.232l40.671,2.988l32.019,-4.494l19.485,7.99l14.19,-1.462l11.41,-0.878l17.847,-0l10.106,2.953l37.303,0l9.874,-5.12l20.631,-1.452l12.639,3.979l13.374,-4.791l14.512,2.575l13.809,2.34l13.575,-0.936l17.178,-2.454l11,0.468l7.724,3.745l12.405,-2.808l8.192,1.404l6.97,3.263" style="fill:none;stroke:#000;stroke-width:1px;"/></svg>