<?xml version="1.0" encoding="UTF-8" standalone="no"?><!DOCTYPE svg PUBLIC "-//W3C//DTD SVG 1.1//EN" "http://www.w3.org/Graphics/SVG/1.1/DTD/svg11.dtd"><svg width="100%" height="100%" viewBox="0 0 500 500" version="1.1" xmlns="http://www.w3.org/2000/svg" xmlns:xlink="http://www.w3.org/1999/xlink" xml:space="preserve" xmlns:serif="http://www.serif.com/" style="fill-rule:evenodd;clip-rule:evenodd;stroke-linejoin:round;stroke-miterlimit:1.5;"><path d="M252.04,19.189c128.541,0 232.899,102.786 232.899,229.39c0,126.603 -104.358,229.389 -232.899,229.389c-128.541,0 -232.9,-102.786 -232.9,-229.389c0,-126.604 104.359,-229.39 232.9,-229.39Zm0.349,32.764c-114.585,0 -203.775,85.011 -203.775,197.869c-0,112.859 90.797,198.905 205.382,198.905c114.585,0 197.955,-89.025 197.955,-201.883c-0,-112.859 -84.977,-194.891 -199.562,-194.891Z" style="fill:#808080;"/><clipPath id="_clip1"><path d="M252.04,19.189c128.541,0 232.899,102.786 232.899,229.39c0,126.603 -104.358,229.389 -232.899,229.389c-128.541,0 -232.9,-102.786 -232.9,-229.389c0,-126.604 104.359,-229.39 232.9,-229.39Zm0.349,32.764c-114.585,0 -203.775,85.011 -203.775,197.869c-0,112.859 90.797,198.905 205.382,198.905c114.585,0 197.955,-89.025 197.955,-201.883c-0,-112.859 -84.977,-194.891 -199.562,-194.891Z"/></clipPath><g clip-path="url(#_clip1)"><path d="M171.949,70.474l-11.275,-34.612c-0,-0 54.954,-20.813 102.225,-17.227c48.005,3.643 88.945,20.241 88.945,20.241l-10.249,38.249c0,-0 -29.64,-17.3 -87.438,-20.299c-41.576,-2.158 -82.208,13.648 -82.208,13.648Z" style="fill:#ececec;"/></g><g id="Layer27"><path d="M-0.871,500.134l1.448,-0.561" style="fill:none;stroke:#000;stroke-width:0.23px;"/><path d="M-0.915,-2.603l1.412,3.595" style="fill:none;stroke:#000;stroke-width:0.23px;"/><path d="M500.878,-2.404l-1.342,3.151" style="fill:none;stroke:#000;stroke-width:0.23px;"/><path d="M457.609,463.145l-0.267,-1.109" style="fill:none;stroke:#000;stroke-width:0.23px;"/><path d="M457.609,463.145l-0.267,-1.109" style="fill:none;stroke:#000;stroke-width:0.23px;"/></g></svg>