<?xml version="1.0" encoding="UTF-8" standalone="no"?><!DOCTYPE svg PUBLIC "-//W3C//DTD SVG 1.1//EN" "http://www.w3.org/Graphics/SVG/1.1/DTD/svg11.dtd"><svg width="100%" height="100%" viewBox="0 0 500 500" version="1.1" xmlns="http://www.w3.org/2000/svg" xmlns:xlink="http://www.w3.org/1999/xlink" xml:space="preserve" xmlns:serif="http://www.serif.com/" style="fill-rule:evenodd;clip-rule:evenodd;stroke-linecap:square;stroke-linejoin:round;stroke-miterlimit:1.5;"><g id="Layer46"><path d="M36.92,475.626c-7.918,0.015 -17.609,-7.704 -17.687,-15.386c-0.758,-74.843 0.398,-344.414 -0.583,-424.789c-0.1,-8.147 9.177,-17.156 17.564,-17.518c67.277,-2.901 386.095,0.108 386.095,0.108l58.548,58.706c-0,-0 2.824,318.524 -0.027,385.259c-0.319,7.477 -9.364,15.159 -17.076,15.15c-80.084,-0.098 -353.967,-1.669 -426.834,-1.53Z"/><clipPath id="_clip1"><path d="M36.92,475.626c-7.918,0.015 -17.609,-7.704 -17.687,-15.386c-0.758,-74.843 0.398,-344.414 -0.583,-424.789c-0.1,-8.147 9.177,-17.156 17.564,-17.518c67.277,-2.901 386.095,0.108 386.095,0.108l58.548,58.706c-0,-0 2.824,318.524 -0.027,385.259c-0.319,7.477 -9.364,15.159 -17.076,15.15c-80.084,-0.098 -353.967,-1.669 -426.834,-1.53Z"/></clipPath><g clip-path="url(#_clip1)"><path d="M385.876,290.947l0,132.067c0,10.998 -8.929,19.927 -19.927,19.927l-233.922,0c-10.998,0 -19.927,-8.929 -19.927,-19.927l-0,-132.067c-0,-10.998 8.929,-19.927 19.927,-19.927l233.922,-0c10.998,-0 19.927,8.929 19.927,19.927Z" style="fill:#fff;stroke:#fff;stroke-width:6.67px;"/><path d="M369.92,308.059c0,6.634 -5.386,12.02 -12.02,12.02l-213.239,0c-6.634,0 -12.021,-5.386 -12.021,-12.02c0,-6.635 5.387,-12.021 12.021,-12.021l213.239,-0c6.634,-0 12.02,5.386 12.02,12.021Z" style="stroke:#000;stroke-width:6.67px;"/><path d="M370.896,356.349c0,6.634 -5.386,12.021 -12.021,12.021l-213.238,-0c-6.635,-0 -12.021,-5.387 -12.021,-12.021c-0,-6.635 5.386,-12.021 12.021,-12.021l213.238,0c6.635,0 12.021,5.386 12.021,12.021Z" style="stroke:#000;stroke-width:6.67px;"/><path d="M373.336,402.745c-0,6.635 -5.387,12.021 -12.021,12.021l-213.239,0c-6.634,0 -12.021,-5.386 -12.021,-12.021c0,-6.634 5.387,-12.02 12.021,-12.02l213.239,-0c6.634,-0 12.021,5.386 12.021,12.02Z" style="stroke:#000;stroke-width:6.67px;"/><rect x="139.554" y="9.199" width="217.116" height="160.376" style="fill:#fff;stroke:#fff;stroke-width:6.67px;"/><path d="M335.082,40.278l0,107.381c0,4.277 -3.471,7.748 -7.748,7.748l-43.33,0c-4.276,0 -7.748,-3.471 -7.748,-7.748l-0,-107.381c-0,-4.276 3.472,-7.748 7.748,-7.748l43.33,0c4.277,0 7.748,3.472 7.748,7.748Z" style="stroke:#000;stroke-width:6.67px;"/></g><path d="M36.92,475.626c-7.918,0.015 -17.609,-7.704 -17.687,-15.386c-0.758,-74.843 0.398,-344.414 -0.583,-424.789c-0.1,-8.147 9.177,-17.156 17.564,-17.518c67.277,-2.901 386.095,0.108 386.095,0.108l58.548,58.706c-0,-0 2.824,318.524 -0.027,385.259c-0.319,7.477 -9.364,15.159 -17.076,15.15c-80.084,-0.098 -353.967,-1.669 -426.834,-1.53Z" style="fill:none;stroke:#fff;stroke-width:6.67px;"/></g><g id="Layer27"><path d="M-0.871,500.134l1.448,-0.561" style="fill:none;stroke:#000;stroke-width:0.23px;stroke-linecap:butt;"/><path d="M-0.915,-2.603l1.412,3.595" style="fill:none;stroke:#000;stroke-width:0.23px;stroke-linecap:butt;"/><path d="M500.878,-2.404l-1.342,3.151" style="fill:none;stroke:#000;stroke-width:0.23px;stroke-linecap:butt;"/><path d="M457.609,463.145l-0.267,-1.109" style="fill:none;stroke:#000;stroke-width:0.23px;stroke-linecap:butt;"/><path d="M457.609,463.145l-0.267,-1.109" style="fill:none;stroke:#000;stroke-width:0.23px;stroke-linecap:butt;"/></g></svg>