<?xml version="1.0" encoding="UTF-8" standalone="no"?><!DOCTYPE svg PUBLIC "-//W3C//DTD SVG 1.1//EN" "http://www.w3.org/Graphics/SVG/1.1/DTD/svg11.dtd"><svg width="100%" height="100%" viewBox="0 0 500 500" version="1.1" xmlns="http://www.w3.org/2000/svg" xmlns:xlink="http://www.w3.org/1999/xlink" xml:space="preserve" xmlns:serif="http://www.serif.com/" style="fill-rule:evenodd;clip-rule:evenodd;stroke-linecap:square;stroke-linejoin:round;stroke-miterlimit:1.5;"><g id="Layer14"><path d="M30.64,287.223l69.643,-158.035l166.964,-59.822l179.464,70.536l-72.321,226.786l-33.036,20.535l-9.821,17.858l-134.822,36.607l-120.535,-82.143l-45.536,-72.322Z" style="fill:#777775;"/><clipPath id="_clip1"><path d="M30.64,287.223l69.643,-158.035l166.964,-59.822l179.464,70.536l-72.321,226.786l-33.036,20.535l-9.821,17.858l-134.822,36.607l-120.535,-82.143l-45.536,-72.322Z"/></clipPath><g clip-path="url(#_clip1)"><path d="M446.711,139.902l-72.321,226.786l-33.036,20.535l-47.321,-97.321l59.821,-143.75l92.857,-6.25Z" style="fill:#7c7c7a;"/><path d="M100.283,129.188l166.964,-59.822l179.464,70.536l-92.857,6.25l-82.143,-41.964l-158.928,46.428l-12.5,-21.428Z" style="fill:#b2b2b1;"/><path d="M100.283,129.188l166.964,-59.822l4.464,34.822l-158.928,46.428l-12.5,-21.428Z" style="fill:#9d9d9c;"/><path d="M30.64,287.223l69.643,-158.035l12.5,21.428l-10.715,23.215l-3.571,93.75l-67.857,19.642Z" style="fill:#7c7c7a;"/><path d="M331.533,405.081l-134.822,36.607l11.607,-124.107l-73.214,-17.858l-58.928,59.822l-45.536,-72.322l67.857,-19.642l3.571,-93.75l10.715,-23.215c-0,0 46.642,-17.389 70.511,-24.362c26.488,-7.739 88.417,-22.066 88.417,-22.066l82.143,41.964l-59.821,143.75l-11.608,7.143l49.108,108.036Z" style="fill:#5a5a59;"/><path d="M341.354,387.223l-9.821,17.858l-134.822,36.607l-120.535,-82.143l58.928,-59.822l73.214,17.858l74.107,-20.536l11.608,-7.143l47.321,97.321Z" style="fill:#444443;"/><path d="M331.533,405.081l-134.822,36.607l11.607,-124.107l74.107,-20.536l49.108,108.036Z" style="fill:#505050;"/><path d="M76.176,359.545l-45.536,-72.322l67.857,-19.642l36.607,32.142l-58.928,59.822Z" style="fill:#505050;"/></g><path d="M30.64,287.223l69.643,-158.035l166.964,-59.822l179.464,70.536l-72.321,226.786l-33.036,20.535l-9.821,17.858l-134.822,36.607l-120.535,-82.143l-45.536,-72.322Z" style="fill:none;stroke:#000;stroke-width:6.67px;"/><path d="M98.497,267.581l3.571,-93.75l10.715,-23.215c-0,0 47.345,-17.899 71.614,-24.989c26.488,-7.738 87.314,-21.439 87.314,-21.439l82.143,41.964l-59.821,143.75l-11.608,7.143l-74.107,20.536l-73.214,-17.858l-36.607,-32.142Z" style="fill:none;stroke:#000;stroke-width:3.96px;"/><path d="M135.104,299.723l-58.928,59.822" style="fill:none;stroke:#000;stroke-width:3.96px;"/><path d="M208.318,317.581l-11.607,124.107" style="fill:none;stroke:#000;stroke-width:3.96px;"/><path d="M282.425,297.045l49.108,108.036" style="fill:none;stroke:#000;stroke-width:3.96px;"/><path d="M341.354,387.223l-47.321,-97.321" style="fill:none;stroke:#000;stroke-width:3.96px;"/><path d="M353.854,146.152l92.857,-6.25" style="fill:none;stroke:#000;stroke-width:3.96px;"/><path d="M267.247,69.366l4.464,34.822" style="fill:none;stroke:#000;stroke-width:3.96px;"/><path d="M100.283,129.188l12.5,21.428" style="fill:none;stroke:#000;stroke-width:3.96px;"/><path d="M30.64,287.223l67.857,-19.642" style="fill:none;stroke:#000;stroke-width:3.96px;"/></g><g><path d="M0.418,0.544l-0.294,-0.382" style="fill:none;stroke:#000;stroke-width:0.23px;"/><path d="M0.044,499.964l0.2,-0.254" style="fill:none;stroke:#000;stroke-width:0.14px;"/><path d="M499.933,499.795l-0.432,-0.354" style="fill:none;stroke:#000;stroke-width:0.14px;"/><path d="M499.889,0.035l-0.147,0.491" style="fill:none;stroke:#000;stroke-width:0.14px;"/></g></svg>